<?xml version="1.0" standalone="no"?>
<!DOCTYPE svg PUBLIC "-//W3C//DTD SVG 20010904//EN"
 "http://www.w3.org/TR/2001/REC-SVG-20010904/DTD/svg10.dtd">
<svg version="1.0" xmlns="http://www.w3.org/2000/svg"
 width="4500.000000pt" height="4500.000000pt" viewBox="0 0 4500.000000 4500.000000"
 preserveAspectRatio="xMidYMid meet">
<metadata>
Created by potrace 1.14, written by Peter Selinger 2001-2017
</metadata>
<g transform="translate(0.000000,4500.000000) scale(0.100000,-0.100000)"
fill="#000000" stroke="none">
<path d="M17484 44846 c-3 -8 -13 -13 -22 -11 -9 1 -27 -9 -39 -22 -13 -13
-23 -21 -23 -17 0 4 -11 -5 -25 -20 -14 -15 -25 -33 -25 -40 0 -8 -6 -19 -14
-25 -30 -25 -49 -131 -47 -266 1 -136 5 -200 15 -225 3 -8 7 -35 9 -60 2 -25
7 -52 10 -60 9 -26 20 -74 22 -95 0 -11 4 -25 7 -31 6 -9 14 -38 33 -117 9
-37 28 -93 41 -118 7 -14 11 -29 7 -33 -3 -3 0 -6 7 -6 7 0 11 -3 8 -6 -4 -3
4 -36 17 -74 13 -38 21 -71 17 -74 -3 -3 0 -6 6 -6 7 0 12 -5 12 -11 0 -6 6
-25 14 -42 7 -18 23 -59 36 -92 13 -33 41 -98 63 -145 22 -47 40 -91 40 -97 0
-7 3 -13 7 -13 4 0 13 -18 20 -40 7 -22 17 -40 22 -40 4 0 8 -7 8 -15 0 -8 17
-52 39 -97 99 -212 111 -240 111 -248 0 -4 4 -10 9 -12 12 -4 61 -103 61 -123
0 -8 4 -15 8 -15 5 0 28 -39 52 -87 24 -49 48 -91 53 -94 5 -3 12 -23 17 -43
7 -31 6 -35 -6 -25 -11 9 -14 9 -14 0 0 -7 -4 -10 -9 -7 -5 3 -11 0 -14 -7 -3
-9 -30 -14 -89 -15 -98 -1 -147 -9 -167 -25 -8 -7 -51 -13 -103 -14 -69 -1
-94 -6 -109 -18 -10 -10 -25 -15 -32 -12 -8 3 -20 0 -26 -6 -8 -8 -11 -8 -11
2 0 9 -4 10 -12 5 -7 -5 -29 -9 -48 -9 -22 1 -40 -5 -47 -16 -9 -12 -26 -16
-68 -15 -30 1 -55 -2 -55 -7 0 -4 -6 -5 -12 0 -19 11 -59 4 -88 -16 -16 -11
-42 -17 -72 -16 -27 1 -48 -2 -48 -6 0 -14 -36 -22 -101 -24 -44 -2 -75 -9
-94 -21 -16 -10 -49 -19 -80 -20 -39 -1 -60 -8 -76 -23 -15 -14 -26 -18 -34
-11 -7 5 -15 7 -19 3 -4 -4 -29 -6 -56 -6 -28 1 -50 -2 -50 -6 0 -11 -59 -36
-66 -28 -3 3 -19 1 -35 -3 -20 -6 -29 -5 -29 3 -1 7 -10 1 -21 -12 -17 -20
-30 -25 -81 -27 -44 -1 -65 -7 -74 -18 -8 -12 -25 -16 -62 -15 -36 2 -57 -3
-79 -19 -19 -13 -40 -19 -55 -17 -16 3 -34 -2 -48 -15 -13 -11 -35 -20 -49
-21 -14 0 -36 -2 -48 -3 -13 -2 -23 2 -23 7 0 5 -12 -2 -26 -16 -15 -15 -29
-25 -33 -23 -4 3 -13 1 -21 -4 -8 -5 -22 -5 -32 1 -12 6 -18 6 -18 0 0 -6 -6
-8 -14 -5 -7 3 -21 -2 -30 -11 -8 -9 -35 -18 -58 -21 -24 -3 -44 -9 -46 -15
-2 -5 -10 -9 -17 -9 -7 0 -16 -6 -18 -12 -3 -7 -6 -8 -6 -2 -1 16 -60 4 -74
-16 -9 -13 -24 -17 -60 -15 -26 1 -47 -2 -47 -6 0 -5 -7 -6 -15 -3 -8 4 -15 1
-15 -6 0 -6 -4 -9 -9 -6 -5 3 -11 0 -14 -8 -4 -9 -14 -12 -26 -9 -25 6 -83
-15 -75 -28 3 -5 -9 -7 -25 -5 -17 2 -31 -1 -31 -6 0 -5 -5 -6 -11 -3 -6 4
-20 -2 -32 -13 -12 -11 -33 -19 -47 -18 -14 1 -31 -2 -37 -7 -7 -5 -13 -6 -13
-2 0 5 -8 -1 -17 -12 -13 -14 -24 -18 -38 -13 -20 7 -44 -2 -77 -28 -9 -8 -21
-11 -27 -8 -5 4 -19 -3 -29 -15 -21 -21 -72 -33 -72 -16 0 5 -7 4 -15 -3 -8
-7 -15 -9 -16 -4 0 5 -5 -2 -10 -15 -7 -17 -15 -22 -29 -18 -11 3 -23 1 -26
-5 -4 -7 -9 -6 -13 1 -5 8 -15 5 -31 -9 -13 -11 -27 -20 -32 -20 -5 0 -7 -4
-4 -9 6 -10 -12 -9 -29 1 -12 7 -50 -6 -60 -21 -3 -6 -17 -11 -30 -11 -13 0
-28 -8 -33 -17 -6 -11 -25 -17 -52 -19 -24 -1 -46 -8 -51 -16 -5 -7 -9 -8 -9
-3 0 6 -4 4 -8 -3 -5 -7 -19 -15 -32 -17 -13 -2 -26 -8 -29 -13 -12 -17 -50
-32 -56 -22 -4 6 -17 4 -36 -5 -16 -9 -28 -19 -25 -23 3 -4 -9 -9 -26 -10 -17
-2 -36 -10 -43 -18 -6 -9 -29 -18 -51 -19 -21 -2 -41 -4 -44 -5 -3 -1 -9 -2
-13 -1 -5 1 -6 -3 -3 -8 7 -10 -32 -26 -41 -17 -3 3 -14 -6 -25 -19 -14 -18
-27 -24 -43 -21 -17 3 -26 -1 -30 -14 -4 -12 -13 -17 -25 -15 -11 2 -20 -1
-20 -6 0 -6 -7 -6 -19 0 -14 8 -23 5 -39 -12 -12 -13 -30 -23 -41 -24 -11 -1
-29 -11 -40 -22 -11 -11 -29 -18 -40 -16 -14 2 -25 -3 -32 -16 -6 -12 -17 -18
-25 -15 -8 3 -24 -4 -37 -17 -12 -12 -35 -22 -52 -23 -41 0 -72 -12 -79 -29
-3 -9 -12 -12 -21 -9 -10 4 -24 -2 -36 -15 -11 -11 -29 -21 -41 -21 -11 0 -29
-9 -39 -21 -9 -11 -20 -20 -23 -20 -28 3 -46 -1 -41 -9 3 -5 -1 -10 -10 -10
-9 0 -13 -4 -10 -10 3 -6 -1 -7 -10 -4 -8 4 -27 -2 -43 -12 -28 -19 -32 -21
-57 -23 -8 0 -15 -8 -15 -16 0 -10 -9 -14 -26 -13 -18 2 -32 -6 -46 -25 -15
-21 -23 -25 -33 -17 -10 9 -19 6 -35 -10 -12 -12 -31 -23 -42 -25 -11 -3 -29
-12 -39 -21 -11 -10 -19 -14 -19 -10 0 3 -13 0 -30 -9 -16 -9 -30 -20 -30 -26
0 -6 -9 -9 -20 -6 -12 3 -30 -4 -46 -18 -15 -13 -33 -21 -39 -19 -7 3 -21 -5
-31 -18 -11 -13 -27 -22 -37 -20 -11 2 -32 -11 -53 -33 -24 -26 -41 -36 -54
-32 -13 3 -20 0 -20 -8 0 -16 -33 -30 -78 -34 -7 0 -11 -5 -8 -10 6 -10 -18
-23 -47 -26 -11 -1 -23 -8 -27 -15 -5 -8 -18 -15 -30 -17 -13 -2 -39 -19 -59
-39 -22 -21 -43 -33 -54 -30 -10 2 -23 -5 -32 -17 -8 -11 -26 -22 -40 -24 -14
-2 -35 -13 -46 -24 -11 -11 -24 -17 -30 -13 -6 3 -17 -2 -24 -12 -8 -11 -15
-15 -15 -10 0 6 -10 -3 -22 -20 -13 -16 -34 -30 -48 -32 -14 -2 -39 -19 -56
-38 -20 -22 -40 -34 -57 -34 -17 0 -27 -5 -27 -15 0 -13 -4 -16 -25 -15 -16 1
-67 -34 -81 -55 -10 -15 -23 -22 -35 -20 -11 2 -28 -5 -38 -16 -10 -11 -27
-21 -38 -23 -31 -6 -60 -27 -74 -54 -9 -15 -19 -22 -31 -18 -13 3 -34 -10 -63
-39 -25 -24 -45 -39 -45 -34 0 14 -30 -4 -65 -40 -16 -17 -39 -31 -51 -31 -11
0 -34 -15 -51 -34 -16 -19 -41 -36 -54 -38 -13 -1 -41 -20 -61 -41 -21 -21
-38 -36 -38 -33 0 15 -58 -18 -74 -42 -11 -17 -29 -29 -45 -30 -17 -1 -42 -20
-74 -55 -27 -28 -53 -53 -58 -53 -5 -1 -18 -2 -28 -3 -11 0 -23 -10 -26 -21
-4 -11 -10 -18 -15 -15 -5 3 -14 -4 -20 -15 -6 -11 -14 -19 -18 -18 -23 6 -99
-45 -103 -70 0 -4 -5 -6 -10 -4 -5 1 -9 -5 -9 -13 0 -8 -3 -15 -7 -16 -41 -4
-62 -15 -88 -44 -16 -19 -38 -35 -47 -35 -23 0 -49 -11 -44 -19 2 -3 -11 -17
-30 -31 -18 -14 -34 -31 -34 -38 0 -7 -4 -11 -9 -8 -5 3 -12 -1 -15 -10 -5
-13 -9 -14 -20 -5 -11 9 -16 9 -23 -1 -4 -7 -27 -30 -51 -50 -23 -21 -39 -38
-36 -38 4 0 -5 -11 -19 -24 -14 -13 -24 -26 -21 -29 3 -2 -6 -2 -18 0 -17 3
-36 -7 -70 -40 -26 -24 -44 -47 -41 -51 3 -3 0 -6 -8 -6 -8 0 -23 -11 -33 -25
-11 -14 -25 -24 -31 -21 -6 2 -22 -2 -36 -10 -13 -7 -21 -13 -18 -14 16 -1
-119 -122 -138 -124 -14 -2 -64 -45 -124 -106 -55 -57 -109 -104 -119 -105
-22 -1 -90 -59 -90 -76 0 -7 -3 -10 -6 -6 -7 6 -54 -41 -54 -54 0 -5 -4 -9 -9
-9 -5 0 -44 -36 -87 -80 -51 -52 -81 -76 -85 -68 -5 8 -21 -2 -48 -29 -23 -22
-41 -38 -41 -35 0 2 -10 -8 -22 -24 -33 -42 -45 -54 -57 -54 -6 0 -11 -4 -11
-8 0 -13 -107 -121 -114 -115 -3 4 -6 1 -6 -5 0 -14 -107 -121 -114 -114 -4 3
-6 1 -6 -5 0 -5 -34 -44 -75 -86 -41 -43 -75 -74 -75 -70 0 4 -12 -9 -27 -30
-14 -20 -33 -37 -41 -37 -9 0 -13 -3 -9 -6 7 -7 -102 -114 -116 -114 -6 0 -8
-3 -4 -6 6 -6 -70 -86 -78 -81 -2 1 -12 -9 -22 -23 -31 -45 -47 -60 -62 -60
-8 0 -12 -3 -8 -6 7 -7 -41 -54 -56 -54 -6 0 -8 -3 -5 -6 7 -6 -152 -164 -166
-164 -5 0 -7 -2 -4 -6 3 -3 -18 -27 -47 -55 -29 -27 -52 -57 -52 -67 0 -32 -3
-42 -12 -42 -17 0 -241 -233 -241 -251 0 -11 -41 -59 -90 -108 -52 -52 -90
-98 -90 -110 0 -19 -64 -91 -82 -91 -5 0 -6 -4 -3 -10 3 -5 -2 -10 -11 -10
-10 0 -15 -3 -12 -6 4 -3 -11 -22 -33 -41 -22 -20 -39 -45 -39 -57 0 -21 -57
-83 -72 -79 -4 2 -11 -9 -14 -23 -4 -13 -8 -23 -11 -20 -11 11 -54 -51 -58
-84 0 -3 -30 -35 -68 -71 -39 -38 -67 -74 -67 -86 0 -11 -23 -42 -53 -70 -28
-27 -53 -60 -55 -72 -2 -13 -28 -47 -58 -77 -30 -30 -54 -63 -54 -73 0 -11
-16 -35 -35 -54 -22 -22 -35 -45 -35 -61 0 -14 -5 -26 -10 -26 -18 0 -100 -94
-100 -115 0 -11 -16 -33 -35 -50 -23 -20 -35 -39 -35 -56 0 -17 -8 -30 -24
-38 -27 -15 -46 -46 -49 -79 0 -12 -6 -22 -12 -22 -5 0 -21 -11 -33 -25 -20
-21 -27 -35 -31 -65 -1 -3 -17 -23 -37 -44 -24 -25 -34 -44 -31 -57 3 -11 0
-19 -7 -19 -6 0 -18 -10 -26 -21 -8 -12 -20 -27 -27 -34 -6 -6 -13 -21 -15
-31 -2 -10 -11 -28 -21 -39 -9 -10 -16 -24 -14 -30 2 -5 -13 -29 -34 -52 -22
-24 -39 -51 -39 -62 0 -11 -8 -26 -18 -33 -10 -7 -17 -20 -17 -30 0 -9 -17
-35 -37 -58 -21 -23 -38 -51 -38 -62 0 -12 -8 -26 -17 -33 -9 -7 -18 -23 -20
-36 -2 -13 -10 -29 -19 -36 -9 -6 -14 -20 -12 -29 2 -11 -12 -32 -34 -52 -23
-21 -38 -43 -38 -58 0 -12 -10 -30 -21 -38 -13 -8 -19 -21 -16 -30 3 -8 -5
-25 -19 -40 -14 -14 -23 -29 -20 -34 3 -5 -4 -21 -15 -36 -11 -14 -18 -30 -15
-34 3 -5 -3 -18 -13 -29 -10 -10 -24 -35 -30 -55 -7 -20 -16 -38 -22 -40 -5
-2 -11 -14 -14 -27 -2 -13 -12 -32 -21 -42 -9 -10 -14 -23 -12 -30 2 -7 -4
-21 -14 -31 -10 -10 -21 -32 -24 -48 -4 -16 -12 -31 -20 -34 -8 -3 -14 -17
-14 -30 0 -14 -7 -29 -15 -34 -9 -4 -18 -21 -21 -37 -3 -16 -11 -33 -19 -39
-7 -6 -15 -30 -18 -53 -2 -23 -12 -49 -21 -58 -9 -9 -16 -24 -16 -34 0 -10 -9
-26 -20 -36 -12 -11 -18 -27 -16 -41 3 -16 -1 -25 -15 -29 -12 -4 -19 -15 -19
-31 0 -13 -9 -33 -19 -43 -12 -12 -18 -31 -17 -50 1 -20 -6 -40 -21 -57 -13
-15 -23 -36 -23 -46 0 -11 -7 -26 -16 -35 -9 -9 -14 -28 -12 -47 2 -22 -4 -37
-20 -53 -13 -12 -21 -26 -18 -31 2 -4 -4 -21 -15 -38 -10 -16 -19 -41 -19 -55
0 -15 -9 -38 -20 -52 -11 -14 -20 -29 -19 -34 5 -27 -3 -64 -17 -77 -8 -9 -12
-16 -8 -16 3 0 2 -6 -5 -13 -6 -8 -9 -23 -6 -36 2 -13 -4 -30 -15 -41 -11 -11
-20 -31 -20 -45 0 -14 -4 -25 -8 -25 -13 0 -32 -47 -32 -80 0 -15 -5 -30 -10
-32 -12 -4 -20 -36 -24 -97 -2 -28 -9 -47 -20 -53 -11 -6 -16 -23 -16 -56 0
-36 -5 -50 -19 -59 -14 -9 -19 -22 -17 -49 1 -21 -4 -38 -11 -41 -14 -5 -26
-52 -27 -106 -1 -22 -7 -42 -16 -47 -10 -6 -14 -28 -15 -73 0 -36 -3 -63 -6
-61 -14 8 -37 -60 -34 -103 1 -32 -3 -47 -15 -56 -12 -8 -17 -28 -19 -67 -1
-31 -9 -65 -18 -80 -9 -14 -18 -46 -19 -72 -1 -27 -6 -54 -12 -60 -16 -21 -21
-49 -23 -128 -2 -50 -8 -83 -19 -100 -11 -16 -18 -50 -19 -95 -2 -43 -8 -76
-17 -86 -9 -10 -16 -49 -19 -109 -3 -55 -10 -100 -18 -109 -9 -11 -14 -57 -16
-141 -2 -94 -6 -129 -18 -142 -11 -12 -16 -51 -18 -163 -3 -96 -8 -152 -16
-162 -15 -18 -18 -61 -23 -318 -2 -148 -7 -207 -17 -225 -12 -21 -14 -183 -16
-985 -1 -844 1 -964 14 -995 12 -27 16 -82 18 -245 4 -348 6 -374 22 -384 12
-6 15 -31 15 -117 1 -90 4 -114 19 -136 11 -14 19 -33 19 -42 0 -17 33 -39 44
-29 3 3 14 -3 23 -14 16 -17 30 -19 126 -18 59 1 110 5 113 8 3 3 17 1 31 -4
18 -6 30 -6 39 2 8 6 14 7 14 3 0 -11 70 -12 88 -1 6 5 12 5 12 0 0 -10 302
-9 317 0 7 4 14 4 16 -1 9 -14 134 -6 159 10 19 13 66 15 276 14 159 -1 254 3
256 9 3 7 5 7 5 0 1 -11 148 -12 175 -2 9 4 18 2 22 -4 4 -7 10 -6 19 1 9 7
15 8 19 1 4 -6 13 -8 21 -5 7 3 119 7 247 9 274 3 261 3 254 14 -4 5 5 8 19 6
14 -1 27 1 30 4 2 4 175 7 384 6 248 0 381 4 381 10 0 7 3 7 8 0 9 -13 62 -14
62 -2 0 5 6 4 13 -2 8 -6 16 -9 19 -6 2 3 81 5 176 6 154 1 173 3 188 20 10
11 22 16 28 11 14 -10 57 -9 74 1 6 5 12 5 12 0 0 -12 194 -10 202 2 5 7 8 7
8 0 0 -12 101 -12 120 0 7 5 11 4 7 -1 -7 -12 86 -11 95 1 5 6 8 6 8 -2 0 -8
9 -9 30 -3 20 6 30 5 30 -2 0 -6 7 -7 18 -2 9 4 151 8 316 9 236 2 300 5 307
16 6 11 56 14 231 14 123 0 228 4 235 8 6 4 14 4 17 -1 6 -10 167 -9 183 1 6
4 14 4 17 -1 6 -10 66 -10 82 1 6 3 14 3 18 0 10 -11 56 -11 56 -1 0 5 6 6 12
2 16 -10 50 -10 66 0 7 4 12 2 12 -4 0 -7 6 -8 18 -1 11 6 24 6 35 0 11 -7 17
-6 17 1 0 7 7 8 18 3 20 -10 109 -9 119 0 3 4 12 2 20 -4 9 -8 13 -8 13 -1 0
6 10 9 22 7 27 -6 98 15 98 28 0 5 6 4 14 -2 10 -9 16 -9 21 -1 5 7 11 8 19 1
7 -6 17 -6 26 -1 9 5 19 5 26 -1 8 -7 14 -6 19 1 5 8 11 7 23 -2 9 -8 17 -9
19 -3 2 6 139 10 383 10 247 0 380 4 380 10 0 7 3 7 8 0 9 -12 162 -14 162 -2
0 6 5 5 13 0 13 -10 78 -10 96 1 6 4 11 3 11 -3 0 -13 39 -5 59 12 13 11 91
14 411 16 707 3 832 7 865 23 25 13 95 15 435 14 260 -1 408 3 412 9 5 6 8 5
8 -3 0 -7 5 -10 10 -7 18 11 360 11 364 0 3 -6 5 -5 5 2 1 6 9 9 20 6 10 -2
24 2 32 9 8 8 39 15 69 16 30 1 60 2 65 2 6 1 29 -1 53 -3 23 -2 42 0 42 5 0
5 5 6 12 2 18 -11 157 -10 162 1 3 6 5 4 5 -2 1 -9 8 -10 26 -3 15 6 34 6 48
1 13 -5 30 -5 39 0 11 6 19 5 23 -1 4 -6 12 -7 18 -3 7 4 160 8 340 9 181 1
331 4 334 7 3 3 11 3 19 0 8 -3 16 1 19 9 4 11 49 13 228 13 122 -1 228 3 235
8 6 5 12 6 12 1 0 -13 303 -11 312 1 5 6 8 5 8 -4 0 -10 3 -11 13 -2 8 6 17 8
21 4 10 -11 36 -12 36 -2 0 5 10 5 23 0 13 -5 30 -5 39 0 11 6 19 5 23 -1 4
-6 11 -7 18 -3 6 3 74 7 151 7 103 1 140 4 144 14 3 10 60 13 250 13 661 2
842 5 842 12 0 4 8 3 18 -2 13 -7 23 -6 30 1 8 8 12 9 12 1 0 -10 12 -10 93 1
10 1 22 7 25 13 5 8 91 11 270 10 144 -1 262 2 262 6 0 5 5 5 11 1 6 -3 68 -5
137 -4 70 1 233 3 362 4 193 2 239 5 260 18 31 20 171 20 178 0 2 -6 8 -10 13
-6 5 3 9 2 9 -3 0 -4 15 -14 33 -22 17 -8 47 -25 65 -38 17 -13 32 -20 32 -16
0 4 4 3 8 -3 7 -12 71 -48 85 -49 4 0 11 -4 15 -10 9 -13 104 -61 114 -58 4 2
8 -2 8 -7 0 -6 7 -10 15 -10 8 0 15 -5 15 -11 0 -5 4 -8 9 -4 5 3 12 1 16 -5
4 -6 11 -8 16 -5 5 4 9 1 9 -5 0 -6 5 -8 10 -5 5 3 10 -1 10 -10 0 -9 5 -13
10 -10 6 4 22 0 35 -9 13 -9 31 -16 39 -16 8 0 16 -5 18 -10 2 -6 14 -12 27
-15 12 -2 29 -9 37 -16 8 -6 14 -8 14 -4 0 5 8 1 18 -7 18 -16 61 -33 75 -30
4 1 7 -2 7 -7 0 -9 48 -26 64 -22 5 1 13 -4 17 -11 5 -7 12 -13 16 -13 4 -1
18 -6 31 -13 12 -7 22 -9 22 -5 0 4 5 2 11 -4 6 -6 18 -9 25 -6 8 3 14 0 14
-7 0 -6 5 -8 10 -5 6 3 10 1 10 -5 0 -6 4 -9 9 -6 5 4 11 2 13 -4 1 -5 15 -11
31 -12 15 -1 27 -6 27 -11 0 -4 5 -5 10 -2 6 3 10 1 10 -5 0 -7 7 -10 15 -6 8
3 15 1 15 -4 0 -5 7 -7 15 -4 8 4 15 2 15 -3 0 -6 27 -18 60 -28 33 -10 60
-23 60 -28 0 -6 3 -8 6 -4 6 6 68 -14 122 -39 17 -8 44 -16 60 -17 15 -1 33
-7 40 -14 7 -7 18 -10 26 -7 7 3 19 -2 26 -10 7 -9 16 -14 20 -11 5 3 19 1 32
-4 12 -5 26 -9 30 -10 4 -1 23 -8 43 -17 19 -8 35 -12 35 -9 0 3 10 0 23 -7
12 -6 27 -13 32 -14 6 -1 30 -8 55 -15 25 -7 50 -14 55 -14 6 -1 20 -7 33 -14
12 -6 38 -14 56 -15 18 -2 43 -9 55 -16 12 -6 29 -9 37 -6 8 3 14 1 14 -4 0
-8 58 -26 74 -22 4 2 14 -2 20 -7 7 -6 21 -12 32 -14 31 -6 78 -18 94 -25 8
-3 24 -6 35 -7 11 -1 31 -5 45 -10 14 -5 35 -9 47 -10 12 -1 28 -6 35 -12 7
-6 23 -9 36 -8 12 1 22 -2 22 -7 0 -4 13 -8 29 -8 16 0 36 -6 43 -13 7 -7 24
-12 38 -11 14 1 30 -1 35 -4 11 -7 25 -10 75 -18 19 -2 37 -8 40 -12 3 -4 18
-8 34 -9 16 -1 37 -5 45 -9 9 -4 30 -8 46 -9 17 -2 30 -4 30 -5 0 -1 7 -3 15
-5 29 -7 65 -15 90 -20 14 -3 49 -11 78 -19 29 -8 62 -13 73 -11 12 3 19 -2
19 -12 0 -13 3 -13 15 -3 9 8 15 8 15 2 0 -6 8 -13 18 -15 9 -3 -4 -4 -30 -2
-27 1 -48 -2 -48 -7 0 -5 -6 -6 -12 -1 -18 11 -67 12 -74 1 -3 -4 -10 -6 -15
-2 -18 10 -59 12 -59 1 0 -6 -5 -6 -12 0 -14 10 -97 11 -114 1 -5 -4 -16 -3
-24 2 -8 5 -22 4 -33 -2 -15 -8 -18 -7 -11 4 6 11 5 11 -9 -1 -9 -7 -17 -9
-17 -4 0 13 -51 8 -59 -5 -8 -13 -80 -20 -84 -8 -2 6 -9 6 -17 1 -8 -5 -103
-9 -211 -10 -158 0 -200 -3 -214 -15 -15 -12 -63 -15 -275 -16 -226 0 -261 -2
-284 -17 -14 -10 -26 -13 -26 -7 0 8 -6 7 -20 0 -15 -8 -20 -8 -20 1 0 9 -3 9
-14 0 -10 -8 -16 -9 -21 -1 -4 7 -12 7 -26 0 -14 -8 -19 -7 -19 1 0 9 -3 9
-14 0 -10 -9 -16 -9 -21 -1 -5 8 -10 8 -20 0 -10 -8 -15 -8 -20 0 -5 8 -10 8
-20 0 -9 -8 -15 -8 -20 0 -4 6 -12 7 -24 1 -10 -6 -23 -6 -31 -1 -8 5 -22 4
-32 -1 -13 -7 -18 -6 -18 2 0 8 -4 8 -13 1 -7 -6 -18 -7 -27 -2 -7 4 -24 4
-37 -1 -15 -5 -23 -5 -23 2 0 6 -6 7 -12 2 -7 -4 -21 -6 -30 -5 -10 2 -18 -2
-18 -7 0 -6 -6 -11 -14 -11 -8 0 -17 -6 -19 -12 -4 -10 -6 -9 -6 1 -1 10 -4
11 -15 2 -11 -9 -43 -10 -66 -1 -3 2 -9 1 -15 0 -5 -2 -102 -4 -214 -5 -148
-1 -206 -5 -209 -13 -2 -7 -8 -10 -13 -6 -5 3 -9 0 -9 -6 0 -6 -4 -9 -9 -5
-17 10 -71 13 -77 4 -3 -5 -13 -5 -23 1 -12 6 -22 5 -29 -2 -7 -7 -12 -8 -12
-3 0 10 -91 11 -116 1 -7 -3 -16 -2 -18 3 -6 9 -36 8 -52 -2 -6 -3 -14 -4 -18
0 -8 8 -66 10 -66 2 0 -3 -14 -3 -31 -1 -20 3 -34 0 -40 -9 -7 -11 -59 -14
-267 -15 -257 -1 -293 -5 -314 -38 -5 -8 -8 -8 -8 0 0 11 -55 12 -66 1 -3 -3
-16 -3 -28 1 -27 10 -68 9 -83 -1 -7 -5 -13 -4 -13 1 0 5 -7 9 -15 9 -8 0 -15
-5 -15 -11 0 -7 -3 -7 -8 -1 -9 12 -102 15 -102 3 0 -5 -6 -6 -12 -1 -13 8
-98 7 -106 -2 -3 -2 -12 0 -22 5 -13 7 -23 5 -37 -8 -18 -15 -49 -17 -279 -17
-218 0 -261 -2 -271 -15 -10 -13 -53 -15 -272 -16 -228 -1 -263 -3 -279 -17
-14 -13 -21 -14 -30 -5 -7 7 -12 8 -12 2 0 -5 -9 -10 -20 -10 -11 0 -20 4 -20
9 0 4 -4 5 -10 2 -19 -11 -50 -14 -50 -4 0 6 -4 8 -9 4 -14 -8 -71 -13 -71 -6
0 6 -54 5 -95 -2 -11 -2 -32 -1 -47 4 -16 4 -28 5 -28 1 0 -4 -33 -7 -72 -7
-53 0 -76 -4 -85 -15 -9 -12 -53 -15 -273 -15 -231 0 -263 -2 -274 -17 -8 -11
-17 -13 -27 -8 -8 5 -21 5 -27 1 -7 -4 -33 -5 -58 -1 -24 4 -47 3 -50 -2 -3
-5 -12 -4 -20 3 -11 9 -14 8 -14 -2 0 -12 -2 -12 -9 0 -6 10 -13 10 -28 3 -11
-6 -25 -7 -33 -2 -8 5 -18 6 -23 3 -4 -3 -60 -5 -124 -5 -82 0 -120 -4 -129
-13 -10 -10 -59 -13 -181 -14 -313 -3 -337 -4 -351 -24 -9 -12 -18 -15 -25 -9
-7 5 -21 8 -32 6 -31 -5 -67 -6 -97 -1 -16 2 -28 0 -28 -6 0 -5 -5 -5 -13 2
-10 8 -17 7 -25 -1 -7 -7 -12 -8 -12 -2 0 5 -9 10 -20 10 -11 0 -20 -4 -20 -9
0 -5 -6 -5 -13 1 -8 7 -18 7 -27 2 -8 -5 -21 -5 -32 1 -13 7 -18 6 -18 -2 0
-8 -4 -8 -13 -1 -8 7 -18 7 -27 2 -8 -5 -21 -5 -32 1 -13 7 -18 6 -18 -2 0 -9
-3 -9 -14 0 -11 9 -16 9 -21 0 -6 -8 -9 -8 -15 1 -5 8 -12 6 -25 -7 -17 -16
-41 -18 -275 -19 -215 -1 -260 -3 -280 -17 -19 -11 -52 -16 -130 -16 -58 0
-114 0 -125 -1 -11 0 -73 0 -139 1 -65 0 -121 -2 -124 -5 -3 -3 -11 -1 -19 5
-10 9 -13 8 -13 -5 0 -18 -1 -18 -80 -20 -30 -1 -61 2 -67 7 -7 5 -13 6 -13 1
0 -8 -103 -10 -120 -4 -3 1 -9 1 -15 0 -5 -2 -58 -4 -116 -5 -70 -1 -115 -7
-135 -17 -20 -10 -58 -14 -117 -14 -53 1 -87 -3 -87 -9 0 -7 -3 -7 -8 0 -9 12
-112 14 -112 2 0 -4 -6 -5 -12 -1 -7 5 -49 8 -93 8 -64 1 -84 -3 -98 -17 -14
-14 -22 -16 -32 -7 -9 7 -15 8 -19 1 -4 -6 -15 -7 -30 -1 -12 4 -29 4 -36 0
-9 -5 -20 -4 -27 2 -9 7 -13 7 -13 0 0 -6 -13 -7 -34 -2 -19 4 -40 4 -47 -1
-7 -4 -19 -3 -26 3 -9 7 -13 7 -13 0 0 -11 -18 -11 -37 1 -6 4 -14 3 -18 -2
-3 -7 -15 -7 -30 -1 -13 5 -26 6 -29 2 -2 -4 -33 -6 -68 -6 -45 1 -68 -3 -81
-14 -20 -18 -67 -24 -67 -10 0 5 -6 6 -12 2 -7 -5 -107 -9 -223 -10 -268 -2
-258 -2 -249 -15 4 -7 1 -10 -7 -7 -8 3 -26 1 -41 -3 -18 -5 -28 -4 -28 3 0 7
-4 7 -13 -1 -10 -8 -17 -7 -25 1 -9 9 -12 9 -12 -1 0 -7 -5 -9 -12 -4 -16 9
-34 10 -75 2 -18 -4 -33 -3 -33 1 0 4 -16 4 -35 0 -20 -4 -35 -4 -37 2 -2 6
-13 6 -29 0 -14 -6 -32 -7 -39 -2 -7 5 -25 4 -39 -2 -17 -6 -27 -6 -29 1 -2 6
-14 6 -33 1 -20 -6 -29 -5 -29 3 0 6 -6 2 -14 -9 -13 -18 -29 -19 -218 -21
-112 -1 -203 -2 -203 -3 0 -1 -31 -3 -68 -4 -46 -2 -72 -7 -78 -17 -5 -8 -9
-10 -9 -5 0 5 -7 3 -15 -4 -10 -9 -15 -9 -15 -1 0 13 -22 10 -32 -4 -5 -7 -8
-7 -8 0 0 11 -171 12 -189 1 -6 -4 -11 -3 -11 1 0 9 -174 7 -197 -2 -7 -2 -13
0 -13 4 0 13 -43 0 -52 -14 -5 -9 -55 -12 -179 -11 -137 1 -176 -2 -193 -14
-11 -8 -33 -15 -48 -16 -15 -1 -35 -7 -44 -15 -9 -7 -26 -15 -37 -16 -12 -2
-25 -10 -30 -18 -4 -8 -16 -15 -26 -15 -22 0 -54 -33 -44 -45 5 -4 3 -5 -4 -1
-14 8 -63 -53 -63 -78 0 -9 -4 -15 -9 -12 -4 3 -9 -18 -10 -47 -2 -71 -5 -87
-20 -96 -9 -6 -13 -63 -15 -213 -1 -143 -6 -211 -14 -221 -17 -20 -16 -1225 0
-1245 7 -8 13 -71 15 -160 2 -100 7 -148 15 -153 7 -5 13 -27 14 -51 0 -24 2
-71 2 -105 1 -34 8 -68 15 -75 7 -8 12 -43 13 -91 0 -54 4 -81 13 -87 9 -5 14
-33 15 -84 1 -53 5 -79 15 -85 9 -6 14 -30 15 -68 0 -33 7 -67 14 -76 8 -9 14
-42 14 -76 1 -34 5 -61 9 -61 12 0 23 -42 20 -82 -2 -27 2 -38 11 -38 10 0 14
-18 15 -66 1 -44 7 -72 17 -83 10 -11 16 -36 16 -63 0 -29 5 -48 13 -51 9 -3
13 -20 12 -51 -2 -31 2 -49 12 -54 7 -5 14 -25 15 -48 0 -21 8 -52 16 -69 9
-16 16 -43 17 -58 1 -16 7 -32 14 -37 8 -4 13 -26 13 -51 -1 -24 5 -51 13 -59
7 -8 15 -28 16 -45 2 -16 9 -37 15 -45 7 -8 13 -33 15 -55 1 -22 8 -50 16 -62
7 -12 13 -32 13 -43 0 -11 6 -31 14 -43 8 -12 14 -35 14 -51 0 -16 6 -33 16
-38 9 -5 16 -22 16 -41 0 -18 7 -41 15 -51 8 -11 13 -28 9 -38 -3 -10 3 -24
14 -34 13 -11 18 -26 15 -49 -2 -22 1 -35 12 -39 9 -3 15 -18 15 -36 0 -17 7
-38 15 -46 8 -9 15 -26 15 -40 0 -13 9 -40 19 -60 11 -20 17 -42 14 -50 -3 -7
2 -21 11 -29 9 -9 16 -31 16 -50 0 -20 6 -35 15 -39 8 -3 15 -14 15 -25 0 -11
7 -26 15 -35 9 -8 15 -19 14 -23 -5 -27 2 -63 11 -58 6 3 10 -1 10 -9 0 -28 1
-31 17 -48 9 -10 17 -32 18 -50 2 -18 8 -34 14 -36 6 -2 11 -12 11 -21 0 -10
8 -29 18 -42 10 -13 17 -34 16 -47 -1 -12 3 -25 8 -28 4 -3 6 -10 3 -15 -4 -5
-1 -9 4 -9 6 0 11 -7 11 -15 0 -7 8 -19 18 -24 9 -6 14 -11 10 -11 -4 0 1 -16
12 -35 11 -20 20 -42 20 -49 0 -7 7 -19 15 -26 8 -7 15 -27 15 -45 0 -20 6
-35 15 -39 8 -3 12 -12 9 -19 -3 -8 3 -22 12 -32 10 -10 19 -26 19 -37 1 -11
8 -24 15 -28 8 -5 15 -19 17 -32 2 -13 8 -24 13 -26 6 -2 10 -14 10 -27 0 -15
7 -26 20 -30 11 -4 18 -11 14 -16 -8 -13 6 -50 17 -44 5 4 9 -5 9 -18 0 -14 7
-30 15 -37 8 -7 15 -20 15 -30 0 -10 7 -23 15 -30 8 -7 15 -21 15 -31 0 -11 4
-19 10 -19 5 0 13 -12 16 -27 4 -16 11 -31 16 -34 5 -3 11 -16 13 -29 3 -13
11 -28 19 -32 9 -5 13 -15 10 -22 -3 -7 2 -21 11 -30 9 -8 18 -26 20 -38 3
-13 9 -24 15 -26 5 -2 10 -12 10 -21 0 -10 9 -28 20 -41 11 -12 17 -26 15 -30
-3 -4 2 -13 10 -20 8 -7 15 -21 15 -31 0 -11 5 -19 12 -19 6 0 8 -3 5 -6 -3
-4 5 -15 18 -26 14 -11 25 -28 25 -39 0 -10 4 -19 9 -19 5 0 12 -13 16 -29 3
-16 13 -35 21 -41 7 -7 11 -17 8 -22 -3 -5 10 -25 30 -44 21 -20 33 -40 30
-49 -4 -8 1 -18 10 -21 9 -3 16 -15 16 -25 0 -10 14 -32 30 -47 17 -16 30 -37
30 -46 0 -10 7 -24 15 -32 8 -9 15 -24 15 -35 0 -11 7 -19 16 -19 8 0 12 -4 9
-10 -3 -5 -1 -10 4 -10 6 0 17 -16 25 -35 8 -19 20 -35 26 -35 6 0 9 -4 5 -9
-7 -12 15 -61 27 -61 17 0 35 -25 30 -42 -2 -10 2 -20 12 -24 9 -3 16 -12 16
-20 0 -8 7 -14 15 -14 13 0 20 -17 17 -41 -1 -3 12 -19 28 -34 17 -16 30 -34
30 -39 0 -6 11 -24 25 -40 14 -16 25 -33 25 -38 0 -4 0 -10 0 -13 1 -2 16 -20
35 -40 19 -19 35 -42 35 -51 0 -8 11 -25 24 -37 13 -13 26 -31 28 -42 3 -21
35 -55 50 -55 4 0 8 -7 8 -15 0 -8 4 -15 9 -15 9 0 27 -41 22 -48 -2 -2 11
-15 27 -29 19 -15 28 -31 25 -42 -3 -11 5 -22 21 -30 14 -8 23 -17 21 -21 -2
-4 7 -13 20 -20 14 -7 25 -21 25 -31 0 -10 7 -25 16 -33 8 -9 12 -16 8 -16 -4
0 6 -11 22 -25 16 -14 32 -25 37 -25 4 0 7 -11 7 -25 0 -14 9 -30 20 -37 11
-7 20 -18 20 -25 0 -6 9 -15 20 -18 11 -3 20 -13 20 -21 0 -8 6 -14 14 -14 8
0 17 -14 21 -30 4 -18 13 -30 22 -30 9 0 13 -3 10 -6 -4 -4 14 -27 38 -51 25
-24 45 -50 45 -58 0 -8 34 -49 75 -91 41 -42 72 -80 69 -85 -2 -5 28 -41 68
-80 40 -40 73 -80 73 -90 0 -18 40 -59 58 -59 6 0 8 -3 4 -6 -8 -8 18 -34 34
-34 7 0 10 -3 7 -6 -7 -6 140 -154 154 -154 5 0 6 -4 3 -10 -3 -5 -2 -10 4
-10 6 0 18 -16 27 -36 18 -38 99 -124 116 -124 6 0 9 -2 6 -5 -7 -8 80 -95 94
-95 6 0 9 -3 6 -6 -7 -6 50 -64 63 -64 5 0 9 -5 9 -11 0 -14 25 -39 39 -39 6
0 11 -4 11 -9 0 -12 219 -229 225 -223 3 3 5 -1 5 -9 0 -13 54 -53 73 -54 4 0
12 -6 16 -14 5 -8 14 -10 21 -6 8 5 11 4 7 -2 -7 -11 97 -123 115 -123 6 0 9
-2 6 -5 -9 -9 60 -75 78 -75 9 0 56 -41 105 -90 49 -50 94 -88 99 -85 5 3 44
-28 86 -70 41 -41 82 -75 91 -75 18 0 45 -25 36 -34 -4 -3 0 -6 8 -6 8 0 21
-9 29 -20 8 -11 22 -20 31 -20 10 0 44 -27 76 -60 38 -39 66 -60 81 -60 13 0
21 -4 18 -8 -3 -5 6 -15 19 -22 13 -7 22 -17 19 -22 -3 -4 2 -8 10 -8 9 0 16
-6 16 -14 0 -9 7 -12 19 -9 13 3 24 -2 33 -16 7 -12 18 -21 24 -21 7 0 14 -7
18 -15 3 -8 11 -12 19 -9 14 5 87 -60 87 -78 0 -5 5 -6 10 -3 13 8 92 -49 82
-59 -4 -4 -2 -7 3 -6 6 1 13 1 18 0 4 -1 11 -3 15 -4 5 0 26 -19 48 -41 22
-22 45 -40 52 -40 18 0 62 -36 62 -50 0 -8 8 -11 20 -8 12 3 27 -4 43 -21 13
-14 32 -26 41 -26 9 0 16 -4 16 -10 0 -5 6 -10 13 -10 8 0 20 -11 27 -25 7
-13 17 -22 22 -19 14 9 48 -7 48 -23 0 -9 6 -13 14 -10 16 6 54 -18 75 -46 8
-11 21 -17 32 -14 11 3 19 1 19 -5 0 -12 41 -47 56 -48 6 0 24 -11 40 -25 16
-14 34 -25 40 -25 6 0 23 -9 37 -20 14 -11 31 -20 39 -20 7 0 26 -14 41 -30
16 -17 33 -28 37 -25 5 3 15 -2 23 -10 9 -8 22 -15 30 -15 8 0 28 -13 45 -30
29 -27 44 -34 65 -31 4 0 7 -5 7 -12 0 -7 10 -13 21 -14 12 -1 29 -9 38 -17
10 -9 25 -16 34 -16 8 0 24 -11 35 -25 11 -13 22 -21 26 -18 3 3 6 1 6 -5 0
-7 7 -12 15 -12 9 0 27 -7 40 -16 14 -9 25 -13 25 -9 0 5 9 0 20 -10 12 -11
29 -20 38 -21 9 -2 18 -8 20 -13 2 -6 12 -11 23 -11 10 0 32 -14 47 -30 16
-17 37 -30 46 -30 9 0 25 -9 36 -20 12 -12 25 -18 29 -15 5 2 14 -2 21 -10 7
-8 23 -15 36 -15 13 0 24 -4 24 -9 0 -5 14 -14 30 -20 17 -5 30 -15 30 -22 0
-7 8 -9 21 -6 12 3 22 0 26 -9 3 -8 14 -14 24 -14 11 0 29 -9 41 -19 11 -11
26 -17 34 -14 8 3 17 -2 20 -11 3 -9 15 -16 25 -16 10 0 28 -8 38 -17 11 -9
28 -18 38 -19 10 -2 19 -8 21 -13 2 -6 14 -11 27 -11 12 0 26 -7 29 -16 3 -8
10 -13 15 -10 14 9 41 -4 41 -20 0 -9 11 -14 29 -14 16 0 31 -5 33 -11 2 -5
19 -11 38 -12 20 -1 41 -10 48 -19 7 -10 20 -18 28 -18 9 0 22 -7 31 -15 8 -8
19 -12 24 -9 6 3 19 -4 29 -16 10 -12 23 -19 29 -16 5 3 16 -1 24 -9 9 -8 25
-15 37 -15 13 0 24 -8 27 -19 5 -19 28 -21 53 -6 6 3 10 1 10 -4 0 -6 7 -11
15 -11 8 0 15 -7 15 -16 0 -13 3 -14 14 -4 12 9 19 7 37 -14 16 -19 26 -23 35
-15 9 7 14 4 19 -11 5 -15 13 -20 26 -17 12 3 24 -1 31 -13 8 -12 20 -16 39
-13 20 3 33 -2 45 -16 10 -11 22 -18 26 -15 5 3 18 -2 28 -11 10 -9 35 -17 54
-17 25 0 37 -5 41 -18 3 -10 11 -17 18 -17 30 1 48 -4 43 -11 -3 -5 11 -9 31
-10 20 -1 44 -9 54 -18 11 -10 19 -14 19 -10 0 4 13 -2 29 -13 17 -12 45 -21
66 -21 21 0 34 -4 30 -10 -5 -9 1 -12 21 -9 4 0 10 -3 13 -8 12 -17 52 -33 80
-33 16 0 31 -6 33 -12 3 -7 18 -11 36 -10 18 1 32 -2 32 -8 0 -5 7 -10 16 -10
8 0 13 -4 10 -9 -3 -4 10 -7 29 -5 24 1 38 -3 44 -13 6 -11 23 -16 50 -16 23
0 39 -2 36 -5 -3 -3 0 -11 6 -18 8 -9 18 -10 36 -3 20 7 28 5 43 -13 14 -17
26 -22 54 -20 20 2 36 0 36 -5 0 -4 4 -14 9 -22 8 -12 12 -12 25 -2 10 9 16
10 16 3 0 -6 7 -9 15 -6 8 4 17 -1 21 -10 4 -11 19 -16 44 -16 21 0 40 -4 42
-10 2 -5 17 -11 33 -13 41 -5 66 -17 59 -29 -4 -6 12 -8 41 -5 32 3 51 -1 61
-11 8 -8 30 -14 49 -14 19 0 40 -7 50 -17 10 -12 27 -17 50 -16 24 2 35 -1 35
-11 0 -15 3 -16 65 -16 26 0 44 -6 52 -17 7 -11 23 -16 43 -15 19 1 33 -3 37
-12 3 -9 22 -14 56 -14 33 0 57 -6 69 -17 21 -19 48 -26 48 -12 0 13 38 5 59
-13 20 -17 91 -29 91 -16 0 4 5 8 10 8 6 0 10 -7 10 -15 0 -8 8 -15 18 -16 9
-1 34 -2 54 -3 23 0 42 -8 51 -20 10 -14 22 -17 53 -13 27 4 44 1 56 -10 11
-10 39 -16 78 -17 42 -1 65 -6 73 -16 9 -11 30 -15 75 -15 41 1 66 -4 70 -12
4 -7 32 -13 67 -14 37 -2 68 -9 80 -19 17 -13 37 -17 55 -10 25 10 64 2 87
-17 18 -16 29 -20 34 -12 5 8 8 7 12 -2 4 -11 6 -11 6 -1 1 8 6 10 13 6 7 -5
30 -7 52 -5 24 2 42 -2 47 -10 5 -9 34 -13 93 -13 47 1 86 -3 86 -8 0 -5 4 -7
9 -4 5 3 15 -1 22 -10 9 -11 29 -15 73 -14 123 3 156 0 156 -12 0 -10 33 -13
135 -12 110 1 138 -2 152 -15 15 -14 49 -16 217 -16 142 0 203 -3 212 -12 13
-14 153 -21 172 -9 6 4 12 4 12 -1 0 -10 92 -9 108 1 7 4 12 4 12 -1 0 -4 14
-8 30 -8 17 -1 30 4 30 10 0 5 4 4 9 -3 4 -8 12 -14 16 -14 4 0 12 6 16 14 5
7 9 8 9 2 0 -6 7 -11 15 -11 8 0 15 5 15 11 0 7 3 7 8 1 4 -6 95 -10 237 -10
142 0 233 4 237 10 5 7 8 7 8 0 0 -11 61 -12 78 -1 7 4 12 4 12 -1 0 -6 218
-9 228 -2 1 1 12 2 25 2 12 1 25 6 29 11 5 7 78 11 200 12 184 0 238 6 238 23
0 5 66 8 147 7 113 -1 150 2 160 13 16 16 103 21 103 6 0 -7 3 -7 8 0 8 11 47
13 57 3 4 -3 20 -2 36 2 16 5 29 6 29 4 0 -3 12 3 28 14 22 15 44 18 124 18
70 -1 99 3 103 12 3 8 33 12 100 12 73 0 97 3 101 14 4 9 18 13 42 12 20 -2
44 1 53 5 9 5 20 5 24 1 13 -13 60 -7 80 11 14 13 31 17 58 15 20 -2 37 0 37
5 0 4 8 3 18 -2 12 -6 28 -4 52 6 19 9 66 17 103 18 42 2 74 8 85 17 9 8 36
15 59 15 23 1 49 7 56 15 10 10 35 14 78 12 44 -1 72 4 88 14 13 9 44 17 70
18 25 1 47 7 49 13 2 6 30 11 67 11 43 0 66 5 75 15 7 8 16 12 21 9 5 -3 9 -1
9 3 0 5 11 9 25 9 14 0 25 -3 25 -6 0 -4 7 -7 15 -7 8 0 15 4 15 10 0 5 6 7
12 5 7 -3 19 2 27 10 9 9 29 13 57 10 32 -2 45 1 53 14 8 14 22 17 53 15 28
-3 46 1 58 13 10 10 34 16 63 17 26 1 53 8 61 15 8 8 32 14 57 13 28 0 48 5
55 14 6 8 29 16 50 18 21 1 41 8 45 14 4 6 26 12 50 12 27 0 52 7 64 17 12 10
37 17 64 17 24 1 46 5 50 10 11 16 38 22 50 10 8 -8 11 -8 11 2 0 7 4 10 9 7
5 -4 11 -1 13 6 3 7 16 13 30 13 14 1 37 8 50 16 12 8 43 16 68 18 25 2 48 7
51 13 4 6 21 11 39 13 18 2 36 8 40 15 5 7 24 14 43 15 20 1 43 9 51 17 8 9
28 14 46 13 21 -2 34 3 40 15 7 13 20 17 44 15 22 -1 37 3 40 12 3 7 21 13 42
13 24 0 41 6 50 18 14 19 35 23 46 8 4 -7 16 -2 31 12 13 13 36 22 54 22 17 0
36 7 43 15 7 9 20 15 29 13 23 -3 61 12 61 23 0 6 13 9 29 7 16 -1 36 4 46 12
18 15 21 16 68 18 17 1 27 8 27 18 0 9 8 14 18 13 31 -3 42 1 42 14 0 9 13 13
38 12 26 -1 41 5 51 18 9 13 20 17 36 13 14 -4 29 0 39 9 8 8 27 15 41 15 20
0 26 4 21 15 -5 15 -1 17 52 18 15 1 31 7 35 14 4 7 15 13 23 13 8 0 26 7 39
16 13 9 29 13 34 10 6 -4 15 3 21 14 7 13 18 19 26 16 8 -3 14 0 14 7 0 9 3 8
9 -1 6 -11 11 -10 25 3 9 9 26 18 38 20 39 6 68 17 68 26 0 5 11 9 25 9 14 0
25 5 25 10 0 6 8 10 17 10 9 0 25 7 34 16 10 9 35 19 56 21 21 2 41 10 45 18
5 7 17 11 28 8 14 -4 20 0 20 12 0 12 6 16 19 12 11 -2 24 3 32 14 7 11 23 19
35 19 12 0 24 6 27 14 3 7 18 12 34 11 15 -1 39 7 52 17 13 10 32 18 41 18 10
0 21 7 24 16 4 10 12 14 22 10 11 -4 22 1 31 14 8 12 21 19 28 16 8 -3 19 2
25 10 7 8 21 14 31 14 11 0 28 9 39 20 12 12 25 18 30 15 6 -4 13 1 16 9 3 9
16 16 28 16 23 1 59 24 50 32 -3 4 11 4 30 1 27 -3 38 -1 42 11 3 9 15 16 26
16 11 0 26 7 35 16 9 8 22 13 29 10 7 -3 16 4 19 15 4 10 10 17 14 15 4 -3 20
2 35 10 16 7 35 14 42 14 8 0 17 7 20 15 4 8 10 12 15 9 5 -3 9 0 9 6 0 6 6
10 13 8 17 -3 57 24 57 39 0 7 6 14 13 15 6 0 17 2 22 2 6 1 21 9 35 19 18 13
26 14 32 4 5 -8 8 -9 8 0 0 13 85 63 107 63 8 0 12 4 9 9 -3 5 9 12 28 15 19
4 37 13 40 22 3 8 10 13 14 10 5 -3 18 1 28 9 10 8 29 15 41 15 13 0 24 8 28
21 5 14 13 19 26 16 12 -3 25 3 34 16 8 12 15 17 15 12 0 -6 5 -2 11 8 5 9 18
17 28 17 10 0 24 7 31 15 7 8 21 15 30 15 10 0 20 5 22 11 2 5 10 11 19 12 9
2 28 10 42 20 15 9 32 17 39 17 7 0 24 14 38 30 14 17 34 30 47 30 13 0 23 5
23 10 0 6 9 10 21 10 12 0 34 14 50 31 16 18 35 29 43 26 8 -3 17 1 20 9 3 8
20 21 39 29 18 7 41 23 52 35 10 11 25 18 32 16 7 -3 19 5 28 17 8 12 18 21
20 20 11 -6 48 -3 42 3 -9 10 45 54 66 54 9 0 17 5 17 10 0 6 10 10 23 10 13
0 33 13 47 30 30 37 69 41 71 8 5 -94 7 -118 13 -158 4 -25 8 -79 11 -120 2
-41 7 -106 10 -145 6 -59 4 -71 -11 -82 -10 -7 -14 -13 -10 -13 4 0 -13 -20
-38 -45 -25 -24 -46 -49 -46 -55 0 -14 -26 -41 -33 -34 -3 3 -8 -4 -12 -15 -3
-12 -10 -21 -14 -21 -11 0 -57 -43 -56 -52 0 -4 -24 -33 -54 -65 -30 -32 -53
-59 -50 -61 2 -1 -13 -20 -35 -42 -21 -22 -35 -40 -31 -40 5 0 -3 -9 -16 -21
-13 -11 -24 -24 -24 -29 0 -4 -12 -22 -27 -39 -16 -17 -28 -37 -28 -45 0 -8
-9 -17 -19 -21 -10 -3 -24 -19 -31 -36 -7 -16 -20 -35 -29 -42 -9 -7 -17 -19
-19 -27 -2 -8 -10 -19 -18 -23 -8 -4 -14 -14 -14 -21 0 -8 -7 -19 -15 -26 -8
-7 -12 -16 -9 -21 3 -5 -2 -9 -11 -9 -9 0 -13 -5 -10 -10 3 -6 -1 -13 -9 -16
-9 -3 -14 -10 -11 -14 3 -5 -3 -13 -12 -19 -10 -6 -14 -11 -10 -11 4 0 -3 -15
-17 -33 -15 -19 -26 -39 -26 -45 0 -7 -3 -12 -8 -12 -7 0 -25 -30 -38 -62 -3
-10 -11 -18 -16 -18 -5 0 -7 -4 -4 -8 3 -5 -4 -19 -15 -30 -10 -12 -20 -25
-21 -29 -5 -27 -11 -43 -18 -43 -4 0 -10 -8 -14 -17 -7 -22 -28 -56 -39 -64
-5 -3 -8 -8 -8 -10 2 -13 -13 -49 -20 -49 -5 0 -9 -9 -9 -20 0 -11 -4 -20 -10
-20 -5 0 -10 -5 -10 -11 0 -18 -44 -109 -52 -109 -5 0 -8 -9 -8 -20 0 -11 -5
-20 -12 -20 -6 0 -9 -3 -5 -6 3 -3 -3 -23 -14 -42 -10 -20 -19 -42 -19 -49 0
-7 -4 -13 -10 -13 -5 0 -7 -7 -4 -15 4 -8 1 -15 -5 -15 -6 0 -11 -9 -11 -19 0
-11 -5 -23 -11 -26 -6 -4 -8 -13 -5 -21 3 -8 2 -14 -3 -14 -8 0 -16 -19 -26
-56 -2 -6 -10 -27 -18 -45 -18 -42 -30 -72 -31 -81 -1 -3 -4 -10 -8 -14 -5 -4
-8 -16 -8 -26 0 -10 -5 -18 -11 -18 -6 0 -8 -7 -5 -16 3 -8 -1 -26 -10 -40 -9
-13 -13 -24 -9 -24 4 0 2 -7 -5 -15 -7 -8 -9 -15 -4 -15 5 0 2 -6 -6 -13 -8
-7 -16 -21 -18 -32 -9 -56 -15 -75 -24 -75 -5 0 -8 -6 -5 -12 2 -7 -2 -26 -8
-43 -7 -16 -10 -36 -8 -42 3 -7 0 -13 -6 -13 -6 0 -11 -11 -11 -25 0 -14 -4
-25 -9 -25 -5 0 -7 -13 -6 -30 1 -16 -1 -30 -5 -30 -7 0 -15 -28 -26 -85 -3
-11 -7 -27 -11 -35 -3 -8 -5 -23 -4 -32 1 -10 -2 -18 -8 -18 -5 0 -9 -13 -9
-30 1 -16 -5 -36 -12 -45 -7 -8 -10 -18 -7 -21 3 -3 1 -18 -4 -32 -5 -14 -10
-40 -11 -59 -1 -18 -5 -33 -10 -33 -4 0 -6 -10 -4 -22 2 -13 0 -30 -4 -38 -8
-16 -15 -58 -26 -150 -3 -30 -8 -62 -11 -70 -7 -17 -11 -57 -19 -190 -4 -52
-10 -102 -13 -110 -16 -33 -2 -805 16 -910 3 -19 7 -60 8 -90 0 -30 4 -71 8
-90 7 -36 15 -114 21 -185 1 -22 6 -51 11 -65 4 -14 9 -43 10 -65 1 -22 5 -47
8 -55 7 -20 19 -106 20 -147 0 -18 4 -33 8 -33 4 0 10 -21 13 -48 10 -87 13
-98 21 -113 5 -8 10 -27 11 -44 0 -16 3 -37 7 -45 3 -8 9 -33 12 -55 8 -57 11
-68 18 -85 5 -14 12 -44 22 -107 2 -12 7 -28 11 -35 5 -7 9 -24 10 -38 1 -14
2 -25 4 -25 1 0 4 -13 6 -30 3 -16 8 -32 12 -35 4 -3 7 -14 6 -25 0 -11 3 -29
7 -40 4 -11 11 -29 15 -40 4 -11 9 -31 11 -45 2 -13 8 -29 12 -35 5 -5 7 -20
5 -32 -2 -13 0 -23 5 -23 9 0 26 -65 22 -87 -1 -6 3 -14 9 -18 5 -3 10 -15 10
-26 0 -10 4 -27 9 -37 11 -19 25 -73 23 -85 -1 -4 2 -7 7 -7 5 0 11 -15 14
-32 8 -50 12 -67 20 -74 4 -4 7 -18 7 -31 0 -12 5 -23 10 -23 6 0 10 -8 10
-19 0 -10 9 -38 19 -62 11 -24 21 -53 23 -64 1 -11 8 -26 15 -33 6 -7 10 -21
8 -32 -2 -11 0 -20 4 -20 5 0 12 -10 16 -22 4 -13 8 -25 9 -28 1 -3 6 -16 10
-30 15 -47 31 -80 39 -80 5 0 5 -5 2 -10 -8 -12 16 -70 29 -70 4 0 6 -7 2 -15
-3 -8 -1 -15 4 -15 6 0 10 -7 10 -17 0 -9 11 -39 24 -67 14 -28 34 -72 46 -98
12 -27 26 -50 31 -54 5 -3 9 -15 9 -27 0 -12 9 -33 20 -47 11 -14 20 -30 20
-37 0 -16 33 -73 42 -73 4 0 5 -7 2 -15 -4 -8 -1 -15 5 -15 6 0 11 -7 11 -15
0 -8 5 -15 11 -15 5 0 8 -4 5 -8 -3 -5 6 -25 19 -45 14 -20 25 -40 25 -45 0
-4 8 -17 18 -28 9 -10 18 -27 20 -38 2 -10 12 -28 23 -39 10 -11 19 -27 19
-34 0 -7 8 -21 18 -31 9 -10 28 -39 42 -65 13 -26 28 -47 32 -47 5 0 8 -7 8
-15 0 -8 5 -15 10 -15 6 0 10 -7 10 -15 0 -8 4 -15 9 -15 5 0 14 -13 21 -30 7
-16 16 -30 21 -30 5 0 9 -7 9 -15 0 -9 6 -18 14 -21 8 -3 22 -21 31 -40 9 -19
20 -34 25 -34 6 0 10 -6 10 -14 0 -8 10 -22 22 -30 12 -9 18 -16 13 -16 -5 0
-1 -6 8 -12 9 -7 17 -20 19 -27 2 -8 15 -26 31 -39 15 -13 27 -28 27 -34 0 -5
12 -22 28 -36 15 -15 33 -39 41 -54 8 -16 19 -28 25 -28 15 -1 47 -47 48 -68
0 -9 -3 -28 -7 -42 -6 -24 -19 -150 -30 -300 -3 -41 -8 -88 -10 -105 -2 -16
-7 -61 -10 -100 -11 -122 -65 -655 -81 -795 -8 -74 -24 -209 -34 -300 -11 -91
-24 -203 -29 -250 -16 -137 -80 -639 -91 -710 -5 -36 -12 -83 -15 -105 -70
-557 -257 -1735 -369 -2330 -15 -79 -20 -134 -15 -140 5 -5 19 -10 32 -12 23
-3 58 -9 94 -17 14 -3 24 1 28 12 19 49 195 1089 286 1687 122 806 264 1940
339 2720 6 61 13 130 15 155 3 25 12 122 20 215 8 94 18 190 21 214 l6 43 46
-48 c26 -26 46 -52 44 -56 -1 -4 2 -7 7 -6 4 2 54 -43 110 -99 56 -57 106
-103 112 -103 5 0 9 -6 9 -14 0 -7 8 -17 18 -20 25 -9 64 -33 60 -37 -5 -7 27
-44 42 -47 8 -2 17 -8 18 -13 2 -5 8 -7 13 -3 5 3 9 -2 9 -10 0 -9 5 -16 11
-16 6 0 20 -11 31 -26 11 -14 23 -23 25 -20 3 3 18 -8 33 -24 16 -17 32 -30
37 -30 4 0 22 -14 40 -30 18 -17 40 -30 49 -30 10 0 14 -3 11 -7 -4 -3 10 -18
31 -31 20 -14 39 -28 42 -31 3 -3 17 -12 32 -20 15 -8 36 -22 47 -32 11 -10
26 -20 33 -21 7 -2 19 -11 26 -21 7 -9 17 -15 22 -12 5 3 16 -5 24 -17 9 -12
16 -19 16 -15 0 4 11 0 25 -9 14 -9 22 -21 18 -27 -3 -6 -1 -7 6 -3 6 4 34 -8
62 -26 29 -18 58 -32 65 -30 8 2 14 -4 14 -12 0 -9 6 -13 13 -10 7 2 22 -4 34
-15 11 -11 24 -17 27 -14 3 4 6 1 6 -5 0 -6 14 -13 30 -17 17 -4 30 -10 30
-15 0 -7 29 -18 47 -18 3 0 9 -6 14 -13 7 -12 25 -18 56 -21 7 -1 11 -6 10
-12 -1 -6 6 -10 16 -8 9 2 17 -2 17 -8 0 -5 9 -10 21 -10 11 0 34 -9 50 -21
16 -11 29 -18 29 -14 0 3 10 -1 23 -9 12 -7 34 -16 50 -20 15 -4 27 -11 27
-16 0 -5 7 -7 15 -4 8 4 15 1 15 -5 0 -6 12 -11 26 -11 16 0 23 -4 18 -12 -4
-6 -3 -9 2 -6 5 3 20 1 34 -5 14 -5 30 -11 35 -11 6 -1 28 -9 49 -19 22 -10
50 -20 63 -23 13 -4 26 -10 29 -16 3 -5 12 -4 22 4 9 7 13 8 9 2 -6 -11 10
-19 53 -29 27 -6 45 -12 62 -19 9 -4 23 -9 32 -10 8 -1 19 -5 22 -9 4 -4 18
-7 30 -7 13 0 25 -4 29 -9 3 -6 14 -8 25 -6 11 2 20 -1 20 -6 0 -6 4 -8 9 -4
5 3 12 1 16 -5 4 -6 10 -8 15 -5 5 3 25 -1 45 -9 19 -8 35 -12 35 -8 0 4 5 0
10 -8 8 -12 12 -12 18 -2 7 10 11 10 21 -2 6 -7 28 -14 48 -14 19 0 38 -4 42
-9 3 -4 21 -8 39 -8 17 1 32 -4 32 -10 0 -5 17 -11 38 -12 81 -3 117 -8 123
-15 5 -7 38 -12 165 -22 17 -2 36 -6 42 -10 7 -4 12 -5 12 -1 0 3 9 1 20 -5
15 -8 20 -8 20 2 0 8 3 9 8 3 4 -5 27 -10 52 -9 25 0 52 -5 60 -12 10 -8 21
-10 29 -4 8 4 25 4 38 -1 16 -6 23 -5 23 4 0 7 3 8 8 2 4 -5 25 -10 47 -10 22
0 43 -4 47 -10 5 -6 8 -5 8 3 0 8 5 10 12 6 7 -4 92 -8 189 -8 98 -1 181 -4
185 -8 4 -4 13 -3 21 3 9 8 13 8 13 1 0 -7 10 -8 30 -2 19 5 30 5 30 -1 0 -6
9 -7 23 -3 12 4 110 9 217 10 107 1 195 3 195 5 0 1 20 3 45 4 25 0 51 4 57 8
7 4 14 3 17 -2 4 -6 18 -6 36 -1 19 5 32 5 36 -2 4 -6 9 -6 15 3 5 8 34 14 86
15 106 3 105 3 100 12 -3 4 27 8 66 8 40 1 88 4 107 7 19 3 54 7 77 9 24 2 43
6 43 9 0 6 39 9 133 11 15 1 27 5 27 9 0 5 12 4 26 -1 32 -12 37 -12 29 -1 -7
12 24 22 52 17 13 -3 25 -1 28 4 3 4 18 7 35 6 16 -1 30 0 30 3 0 3 10 7 23 8
78 8 102 11 102 13 0 4 82 18 133 22 6 1 12 6 12 11 0 5 6 5 13 -2 9 -7 17 -7
23 -1 6 6 28 13 50 15 40 5 77 12 82 15 1 2 10 3 20 5 9 1 25 5 34 9 10 5 24
6 32 3 8 -3 16 -2 18 4 2 5 23 12 48 15 25 4 55 10 68 15 15 6 22 5 22 -4 0
-7 5 -5 10 5 6 10 20 15 35 13 14 -1 25 2 25 7 0 5 4 7 9 3 5 -3 12 -1 15 4 3
5 14 7 25 4 10 -2 25 3 35 12 10 10 16 12 16 4 0 -8 5 -8 17 2 9 8 18 13 20
12 1 -2 4 -3 6 -2 1 1 15 2 30 4 16 1 32 8 37 15 5 8 10 9 14 2 4 -7 15 -6 32
3 15 7 33 11 40 8 8 -3 14 0 14 6 0 6 8 11 18 11 19 0 80 21 101 34 11 7 12 6
6 -5 -7 -11 -6 -12 6 -3 8 7 33 15 57 19 28 4 42 12 42 22 0 11 3 13 13 5 8
-7 18 -7 27 -2 8 5 18 6 22 4 4 -3 8 0 8 6 0 7 6 10 14 7 8 -3 17 1 20 10 5
12 9 13 20 4 11 -9 15 -8 20 5 3 9 13 14 21 10 8 -3 21 1 29 9 7 8 16 12 19 9
3 -3 23 4 46 16 23 11 41 18 41 14 0 -4 7 -1 15 6 8 6 18 9 23 6 6 -3 15 1 22
10 7 8 19 13 27 10 7 -3 13 -2 13 3 0 5 16 12 36 15 19 4 38 14 41 21 3 8 9
13 13 10 4 -3 24 2 44 10 20 8 39 15 42 14 4 0 10 3 13 8 12 16 52 34 63 27 7
-4 8 -3 4 4 -4 7 -2 13 3 13 6 1 14 2 19 4 50 14 62 18 62 25 0 4 10 11 23 15
12 4 24 8 27 9 3 2 17 8 31 14 15 6 28 14 30 19 7 15 110 64 121 57 6 -4 8 -3
4 4 -6 11 30 28 49 23 6 -1 7 0 3 4 -10 10 15 33 29 28 7 -3 13 0 13 5 0 6 20
21 45 33 25 12 45 26 45 31 0 4 6 8 14 8 8 0 16 5 18 11 2 5 10 11 19 12 8 2
22 8 30 15 50 42 79 63 79 58 0 -3 14 7 31 24 17 16 35 27 40 24 5 -3 9 2 9
11 0 9 5 13 10 10 6 -3 10 -1 10 4 0 6 7 11 15 11 8 0 15 4 15 9 0 5 9 13 21
16 11 4 18 9 16 12 -7 6 30 43 44 43 6 0 42 32 80 70 38 39 72 70 76 70 13 1
53 38 53 49 0 6 5 11 11 11 5 0 8 4 5 9 -3 5 4 11 16 14 12 4 19 9 16 12 -3 4
24 36 60 73 37 37 66 72 64 79 -1 6 7 14 18 18 12 4 19 9 17 12 -7 6 30 43 44
43 5 0 8 4 4 9 -3 5 8 24 25 42 16 19 30 39 30 47 0 7 7 15 15 18 8 4 13 10
10 14 -3 5 3 15 14 22 11 8 25 26 32 41 7 15 16 27 21 27 4 0 8 6 8 13 0 8 9
22 20 32 12 10 19 24 16 31 -3 7 2 15 10 18 9 3 13 10 10 15 -3 5 1 11 9 15 8
3 15 10 15 15 0 13 71 134 83 142 5 4 6 12 3 18 -4 6 -4 11 1 11 9 0 33 48 33
68 0 7 5 10 12 6 8 -5 9 -2 5 9 -3 10 -3 17 2 17 8 0 24 38 22 53 -1 4 2 7 7
7 8 0 40 72 42 98 1 4 8 17 15 29 8 12 17 33 19 45 2 13 8 22 13 21 6 -1 9 10
8 25 0 15 5 33 12 40 7 8 11 18 8 23 -4 5 -2 9 2 9 8 0 30 64 40 115 2 11 8
24 13 29 4 4 6 15 3 22 -3 8 0 14 6 14 6 0 11 11 11 23 0 13 3 27 7 31 4 3 8
12 10 19 1 7 7 30 13 52 6 22 13 48 15 59 2 10 9 23 14 30 5 6 8 21 7 31 -2
11 0 25 5 30 4 6 9 22 11 35 2 14 7 31 11 37 5 7 6 13 3 13 -2 0 2 24 11 52 8
29 16 66 19 81 2 15 8 35 13 45 4 9 7 27 5 40 -2 12 1 22 6 22 6 0 10 13 10
28 0 16 3 32 7 36 5 4 9 20 9 34 1 15 6 40 13 55 6 16 9 32 6 37 -3 5 -1 11 4
14 5 3 9 22 9 41 0 20 4 41 10 48 5 6 8 22 7 35 -1 12 2 22 7 22 4 0 8 18 8
40 0 22 4 40 8 40 4 0 9 14 10 31 1 18 6 37 9 43 4 6 8 22 9 36 3 33 11 85 18
107 3 10 8 34 11 53 3 19 10 52 14 72 5 20 6 39 3 43 -3 3 -1 5 5 5 5 0 10 16
11 35 1 20 5 41 9 48 3 6 7 23 8 37 1 14 4 30 7 35 3 6 6 30 7 54 0 25 4 47 9
50 4 3 8 17 9 31 4 48 16 115 23 125 3 6 8 27 9 48 1 20 6 48 11 62 5 13 7 34
5 46 -3 12 -1 27 4 33 4 6 9 28 9 49 1 21 5 43 9 50 4 7 8 26 9 42 0 17 4 55
9 85 5 30 8 59 7 64 -2 4 2 14 8 21 6 7 9 23 7 36 -2 13 0 39 5 59 6 19 12 55
14 80 2 25 6 68 9 95 2 28 7 61 11 75 4 14 8 48 9 75 1 28 5 64 9 80 4 17 7
57 8 88 1 31 5 57 8 57 3 0 7 33 8 72 1 40 5 82 9 93 4 11 7 54 8 95 0 42 4
80 7 85 3 6 6 87 6 180 0 94 4 181 9 195 10 29 10 208 -1 260 -4 19 -9 103
-11 185 -6 262 -10 340 -19 353 -4 7 -8 41 -8 77 -1 36 -4 65 -8 65 -4 0 -8
26 -9 57 -1 32 -5 60 -9 63 -4 3 -7 23 -7 45 0 22 -3 45 -7 51 -5 7 -9 28 -10
48 -1 20 -4 39 -8 41 -4 2 -6 19 -5 37 1 18 -3 38 -10 45 -7 6 -11 23 -10 37
2 14 -2 26 -8 26 -5 0 -8 2 -5 5 3 4 1 25 -4 48 -5 23 -11 51 -13 62 -2 11 -9
40 -15 65 -7 25 -13 52 -14 59 -2 8 -7 16 -13 18 -6 2 -8 14 -6 27 3 13 0 27
-6 30 -6 4 -11 20 -11 36 0 16 -5 32 -11 35 -6 4 -8 13 -5 20 3 8 1 15 -4 17
-8 3 -17 33 -24 78 -1 8 -7 24 -13 35 -6 11 -8 26 -6 33 3 6 0 12 -6 12 -6 0
-11 11 -11 24 0 14 -5 28 -10 31 -6 4 -8 10 -5 15 3 5 1 17 -4 27 -8 16 -17
39 -22 61 -1 4 -8 21 -15 38 -7 17 -10 34 -7 38 4 3 1 6 -5 6 -7 0 -12 8 -12
17 0 23 -32 106 -43 114 -5 4 -7 11 -3 17 3 6 0 16 -7 24 -8 7 -12 19 -9 26 2
6 -1 12 -7 12 -6 0 -11 7 -11 15 0 24 -51 145 -62 145 -5 0 -7 4 -3 9 3 5 -9
34 -26 63 -17 29 -31 54 -30 56 1 1 -11 26 -26 55 -15 28 -27 54 -28 57 -1 8
-28 55 -34 60 -3 3 -14 21 -25 40 -10 19 -26 41 -34 48 -9 6 -13 12 -9 12 4 0
-4 18 -18 40 -14 22 -25 42 -25 45 0 3 -9 15 -20 27 -11 12 -20 27 -20 34 0 7
-9 16 -20 19 -11 3 -20 14 -20 24 0 10 -9 26 -20 36 -11 10 -20 24 -20 31 0 7
-9 18 -20 24 -11 6 -20 17 -20 25 0 13 -14 30 -87 109 -17 19 -30 36 -27 38 2
2 -12 21 -31 41 -19 20 -35 40 -35 43 0 3 -21 27 -47 54 -25 26 -45 50 -44 54
1 4 -11 19 -27 34 -16 15 -37 42 -48 59 -10 18 -22 33 -25 33 -10 0 -28 19
-59 60 -14 18 -62 71 -107 117 -44 45 -78 83 -75 83 4 1 -5 8 -20 16 -16 8
-28 21 -28 29 0 8 -5 15 -11 15 -6 0 -50 39 -98 88 -88 87 -141 135 -141 126
0 -3 -7 1 -15 10 -8 8 -15 20 -15 26 0 6 -5 8 -11 4 -6 -3 -14 -2 -18 3 -3 6
-25 20 -48 32 -24 12 -43 26 -43 31 0 6 -9 10 -19 10 -11 0 -26 9 -34 21 -11
15 -16 17 -20 7 -4 -9 -6 -8 -6 4 -1 9 -10 20 -21 23 -11 3 -20 11 -20 16 0 5
-3 8 -7 8 -18 -3 -31 2 -51 21 -12 12 -22 18 -22 15 0 -3 -15 5 -32 18 -18 13
-48 30 -65 37 -18 7 -30 16 -28 21 3 4 -3 6 -14 4 -11 -2 -22 3 -26 13 -5 14
-7 14 -15 2 -8 -13 -10 -12 -10 3 0 9 -3 16 -7 15 -8 -1 -47 15 -73 31 -17 11
-53 23 -59 21 -2 -1 -7 2 -10 7 -9 12 -103 59 -113 55 -4 -1 -8 3 -8 9 0 5 -4
8 -9 5 -5 -4 -11 -1 -13 6 -2 6 -15 13 -28 15 -14 2 -28 10 -33 18 -4 9 -13
13 -18 9 -11 -7 -69 17 -69 29 0 5 -4 6 -9 2 -6 -3 -14 2 -19 11 -6 11 -11 13
-16 5 -6 -9 -46 7 -66 29 -3 3 -12 5 -20 5 -8 0 -14 5 -13 11 1 7 -6 10 -16 7
-11 -3 -30 1 -42 8 -13 7 -27 12 -31 11 -5 -1 -8 2 -8 8 0 6 -3 9 -7 9 -16 -3
-74 14 -79 22 -3 5 -10 7 -15 4 -5 -4 -9 0 -9 8 0 10 -7 13 -18 10 -10 -2 -39
5 -65 16 -26 11 -47 18 -47 14 0 -3 -6 0 -13 6 -8 6 -17 8 -20 4 -4 -3 -7 -1
-7 5 0 6 -7 9 -15 6 -8 -4 -15 -2 -15 3 0 5 -10 9 -22 9 -14 -1 -22 4 -20 12
1 8 -2 11 -8 7 -6 -4 -18 -1 -27 7 -12 9 -15 9 -9 1 10 -18 -4 -16 -46 7 -25
13 -38 16 -40 8 -3 -7 -12 -4 -26 10 -13 13 -24 17 -28 11 -4 -7 -12 -6 -22 3
-10 8 -27 13 -39 12 -13 0 -23 3 -23 7 0 5 -16 9 -35 9 -19 0 -35 5 -35 11 0
6 -8 8 -17 5 -10 -3 -31 1 -47 9 -22 12 -32 12 -42 4 -9 -8 -14 -8 -14 -1 0
17 -49 30 -118 33 -18 0 -35 6 -38 13 -3 7 -19 11 -39 10 -19 -2 -35 0 -35 4
0 4 -20 7 -45 6 -25 -1 -45 3 -45 9 0 6 -3 7 -6 4 -4 -3 -15 -2 -25 3 -12 7
-19 6 -22 -3 -4 -9 -6 -9 -6 0 -1 7 -8 10 -16 6 -9 -3 -24 2 -34 11 -13 12
-21 14 -26 6 -5 -8 -11 -8 -21 1 -11 9 -14 9 -14 0 0 -9 -6 -9 -22 0 -13 7
-45 13 -72 13 -35 1 -51 6 -54 16 -3 8 -1 12 3 8 4 -4 23 14 42 40 20 26 43
54 52 63 30 31 51 59 51 70 0 5 4 8 9 5 4 -3 17 10 27 29 10 19 24 35 30 35 7
0 22 15 33 33 11 18 31 46 45 62 14 17 26 34 26 38 0 5 5 5 10 2 6 -3 10 -1
10 4 0 6 9 21 19 33 21 25 133 167 168 214 39 51 57 74 85 107 15 18 28 38 28
45 0 6 5 12 10 12 6 0 15 11 22 25 6 13 15 22 19 19 5 -3 9 1 9 8 0 7 20 40
45 73 25 33 45 62 45 65 0 3 10 16 23 30 33 37 107 148 107 162 0 6 3 9 6 5 6
-5 54 56 54 69 0 6 16 26 45 56 11 11 15 18 8 14 -13 -7 61 107 89 138 10 11
18 24 18 28 0 5 18 36 40 69 22 33 40 67 40 75 0 8 4 14 8 14 8 0 52 71 98
160 16 30 33 58 38 62 5 3 11 17 13 29 2 13 7 26 12 29 8 5 114 218 117 235 1
6 11 33 23 60 77 175 114 330 114 480 1 89 -2 106 -27 155 -30 59 -66 97 -103
106 -13 4 -23 10 -23 15 0 5 -3 8 -7 8 -5 -1 -10 0 -13 1 -22 8 -56 12 -125
14 -72 2 -102 -1 -172 -18 -14 -3 -23 0 -23 7 0 8 -3 9 -8 1 -7 -11 -51 -26
-86 -30 -10 -1 -21 -5 -25 -10 -6 -9 -21 -14 -56 -18 -11 -2 -40 -12 -64 -24
-24 -12 -48 -19 -52 -16 -5 3 -9 1 -9 -3 0 -5 -10 -10 -22 -10 -13 -1 -24 -7
-26 -13 -2 -5 -8 -8 -13 -4 -5 3 -9 0 -9 -5 0 -6 -3 -10 -7 -9 -14 4 -53 -13
-53 -23 0 -5 -6 -9 -12 -8 -17 3 -91 -30 -100 -45 -4 -6 -11 -12 -15 -12 -20
-3 -73 -29 -73 -36 0 -4 -9 -8 -20 -8 -11 0 -20 -5 -20 -11 0 -5 -4 -7 -10 -4
-5 3 -10 2 -10 -3 0 -6 -18 -17 -39 -25 -22 -9 -42 -21 -46 -27 -3 -6 -11 -8
-16 -5 -5 4 -9 -1 -9 -9 0 -10 -6 -13 -15 -10 -8 4 -15 2 -15 -4 0 -5 -10 -12
-23 -16 -12 -3 -32 -14 -44 -25 -11 -11 -24 -17 -27 -14 -3 4 -14 -4 -25 -15
-10 -12 -25 -22 -34 -22 -9 0 -27 -10 -40 -23 -12 -12 -29 -23 -37 -25 -8 -2
-22 -11 -30 -20 -9 -9 -22 -18 -30 -20 -8 -2 -16 -8 -18 -13 -2 -5 -10 -9 -18
-9 -8 0 -14 -4 -14 -10 0 -5 -6 -10 -13 -10 -7 0 -23 -9 -35 -20 -12 -12 -22
-17 -22 -13 0 4 -5 0 -11 -10 -5 -9 -17 -17 -24 -17 -8 0 -15 -4 -15 -10 0 -5
-6 -10 -13 -10 -7 0 -23 -9 -35 -20 -12 -11 -24 -20 -28 -20 -4 0 -15 -9 -25
-21 -9 -11 -20 -20 -23 -20 -24 3 -36 0 -31 -8 3 -5 -3 -12 -14 -16 -11 -3
-22 -12 -25 -20 -3 -8 -11 -15 -18 -15 -7 0 -29 -14 -48 -30 -19 -16 -40 -30
-46 -30 -7 0 -14 -7 -18 -15 -3 -8 -12 -15 -21 -15 -8 0 -15 -7 -15 -16 0 -8
-4 -13 -8 -10 -5 3 -25 -10 -45 -28 -21 -19 -37 -31 -37 -27 0 3 -4 1 -8 -4
-4 -6 -32 -28 -62 -49 -30 -22 -56 -43 -58 -48 -2 -4 -8 -8 -13 -8 -10 0 -17
-5 -63 -45 -16 -14 -32 -25 -35 -25 -3 0 -22 -15 -42 -33 -67 -60 -87 -75 -92
-70 -3 3 -12 -4 -19 -16 -7 -12 -16 -21 -21 -21 -4 0 -25 -17 -47 -39 -21 -21
-41 -36 -44 -33 -3 3 -8 -3 -12 -12 -3 -9 -10 -13 -16 -10 -5 3 -12 -3 -15
-15 -3 -11 -8 -19 -12 -17 -4 3 -24 -11 -45 -30 -20 -19 -39 -34 -42 -34 -3 0
-17 -11 -32 -25 -15 -13 -42 -38 -59 -54 -18 -17 -33 -27 -33 -24 0 4 -11 -7
-23 -25 -13 -17 -27 -29 -30 -25 -4 3 -7 1 -7 -5 0 -7 -4 -12 -10 -12 -5 0
-22 -12 -38 -28 -16 -15 -53 -47 -82 -72 -29 -25 -73 -63 -97 -86 -23 -23 -43
-40 -43 -38 0 2 -17 -13 -37 -32 -21 -20 -48 -42 -60 -51 -13 -8 -23 -22 -23
-29 0 -8 -3 -13 -8 -12 -4 2 -18 -7 -32 -20 -13 -12 -27 -22 -32 -22 -4 0 -8
-7 -8 -15 0 -9 -6 -12 -17 -8 -9 4 -14 2 -11 -3 6 -9 -16 -36 -24 -29 -2 2
-12 -9 -23 -26 -11 -16 -28 -32 -37 -35 -10 -3 -18 -9 -18 -14 0 -5 -20 -24
-45 -43 -24 -19 -43 -36 -41 -38 2 -2 -11 -15 -30 -29 -18 -14 -36 -33 -40
-43 -3 -10 -8 -16 -11 -13 -3 2 -24 -15 -48 -39 -23 -24 -45 -41 -49 -38 -3 4
-6 0 -6 -8 0 -8 -16 -25 -35 -39 -19 -14 -35 -31 -35 -37 0 -7 -4 -13 -9 -13
-10 0 -141 -125 -141 -135 0 -3 -6 -13 -14 -20 -10 -11 -16 -11 -26 -2 -10 9
-11 9 -6 0 7 -13 -119 -150 -135 -146 -4 2 -5 -5 -2 -15 3 -9 3 -14 -1 -11 -4
4 -53 -40 -109 -98 -56 -58 -122 -126 -147 -152 -25 -25 -44 -49 -42 -53 1 -5
-2 -8 -8 -8 -5 0 -24 -16 -42 -36 -18 -20 -54 -59 -80 -86 -27 -28 -48 -55
-48 -60 0 -5 -4 -6 -10 -3 -5 3 -10 3 -10 -2 -1 -19 -41 -55 -67 -59 -15 -3
-30 -10 -34 -16 -4 -7 -9 -7 -13 1 -5 7 -12 7 -26 -1 -10 -7 -17 -16 -14 -20
3 -4 -3 -5 -12 -1 -13 5 -15 3 -9 -7 6 -10 4 -12 -7 -8 -8 4 -40 -5 -69 -20
-30 -14 -63 -27 -73 -29 -11 -2 -27 -10 -36 -18 -9 -8 -26 -15 -38 -15 -12 0
-22 -5 -22 -12 0 -6 -3 -9 -6 -5 -4 3 -21 -1 -38 -10 -17 -10 -33 -18 -36 -19
-3 -1 -15 -5 -27 -9 -13 -4 -23 -11 -23 -15 0 -8 -38 -23 -52 -21 -5 1 -8 -4
-8 -10 0 -5 -5 -7 -10 -4 -6 3 -13 0 -16 -9 -3 -8 -12 -12 -20 -9 -8 3 -14 0
-14 -6 0 -6 -9 -11 -19 -11 -11 0 -21 -5 -23 -10 -2 -6 -13 -12 -25 -13 -13 0
-25 -7 -28 -15 -3 -7 -9 -10 -15 -7 -5 3 -10 2 -10 -4 0 -5 -14 -12 -30 -16
-17 -4 -28 -10 -25 -15 3 -4 -6 -11 -20 -14 -14 -4 -25 -11 -25 -17 0 -6 -4
-7 -10 -4 -5 3 -10 1 -10 -6 0 -7 -3 -10 -6 -6 -4 3 -25 -6 -48 -22 -36 -25
-81 -47 -81 -40 0 2 -12 -8 -27 -22 -14 -14 -39 -31 -55 -39 -15 -8 -34 -22
-41 -30 -12 -13 -13 -13 -7 0 4 9 1 8 -8 -3 -8 -10 -24 -19 -36 -20 -12 -1
-23 -9 -26 -18 -5 -16 -19 -26 -38 -27 -5 0 -16 -9 -25 -19 -19 -20 -46 -38
-78 -52 -12 -6 -29 -20 -38 -32 -8 -13 -18 -20 -21 -17 -3 3 -20 -7 -38 -23
-64 -58 -77 -68 -77 -61 -1 4 -9 -3 -19 -16 -13 -15 -21 -18 -24 -10 -4 8 -6
7 -6 -3 -1 -16 -27 -34 -43 -31 -5 1 -8 -2 -8 -7 0 -12 -61 -71 -73 -71 -4 0
-27 -19 -51 -43 -24 -23 -48 -43 -54 -44 -10 -2 -65 -53 -57 -53 2 0 -11 -15
-28 -33 -18 -18 -35 -31 -40 -29 -4 2 -10 -4 -13 -12 -3 -9 -10 -14 -14 -11
-5 3 -15 -3 -22 -12 -7 -10 -25 -28 -39 -40 l-25 -23 -1 23 c0 26 -13 191 -19
257 -14 146 -16 213 -7 207 6 -4 18 4 27 17 10 16 22 23 34 20 12 -4 22 3 31
20 8 14 18 23 23 20 4 -3 8 0 8 5 0 6 9 11 20 11 10 0 24 8 29 18 6 9 11 13
11 7 0 -5 7 1 16 13 8 12 23 22 34 22 10 0 29 12 42 27 23 27 38 35 65 36 7 0
11 2 9 4 -2 2 6 15 18 28 15 16 31 23 44 20 12 -2 22 0 22 5 0 15 70 80 86 80
8 0 28 14 44 30 16 17 38 30 48 30 20 0 64 44 55 54 -4 3 1 6 9 6 9 0 18 6 21
14 3 8 14 13 24 12 10 -2 29 11 45 32 16 19 28 31 28 26 0 -5 7 -1 14 9 8 10
21 20 30 21 9 1 28 13 43 27 16 13 33 25 38 25 6 1 16 2 24 3 8 0 11 4 8 7 -4
4 9 19 28 34 19 15 32 30 29 33 -3 3 4 8 15 12 12 3 21 12 21 20 0 9 8 12 27
9 15 -3 25 -3 22 1 -9 8 101 116 115 113 7 -2 45 30 86 70 40 39 76 73 81 73
5 1 13 2 17 3 4 0 41 34 82 74 51 52 79 72 92 69 10 -3 18 -1 18 5 0 11 217
227 231 229 5 1 12 2 17 3 13 2 252 246 252 258 0 6 3 8 6 5 4 -3 19 7 34 23
15 16 30 27 32 24 3 -3 8 7 12 21 4 14 11 25 16 25 12 0 156 143 152 153 -1 4
4 7 11 7 7 0 21 11 31 25 10 14 24 25 30 25 6 0 13 12 14 26 1 18 32 55 99
121 54 53 99 100 99 104 1 5 2 13 3 18 0 6 39 48 85 94 46 46 86 92 88 102 4
21 70 93 81 88 4 -2 7 2 7 10 0 8 7 17 15 21 8 3 15 14 15 25 0 11 11 28 25
39 13 11 21 22 18 26 -4 4 3 9 15 13 12 3 23 12 24 19 0 8 1 20 2 27 1 6 15
24 33 38 18 15 30 29 26 33 -3 3 -1 6 6 6 7 0 17 14 22 30 6 16 15 30 19 30 5
0 11 8 15 18 3 11 17 24 31 31 16 7 24 17 20 26 -3 8 9 30 27 50 54 59 61 68
63 81 1 7 11 21 22 32 11 11 28 37 38 58 10 20 25 39 34 41 9 2 17 15 18 29 2
26 45 77 56 67 3 -4 6 5 6 18 0 14 14 40 31 58 16 18 28 39 25 47 -3 7 3 16
14 19 12 4 17 13 15 25 -2 12 7 29 26 44 16 14 29 31 29 40 0 8 7 22 16 31 9
8 14 24 11 35 -3 12 1 21 12 25 22 7 54 62 45 78 -4 6 -4 9 1 5 9 -9 34 20 35
40 0 7 7 20 16 29 8 9 13 21 10 28 -2 7 8 23 24 35 16 13 27 27 24 31 -3 5 0
9 6 9 6 0 9 4 6 9 -3 5 1 14 9 21 8 7 15 20 15 30 0 10 7 23 15 30 8 7 15 23
15 35 0 13 7 25 15 29 8 3 15 14 15 24 0 11 7 25 15 32 8 7 15 20 15 30 0 10
7 23 16 31 8 7 13 21 11 30 -3 12 2 21 15 25 12 4 17 11 14 21 -4 9 3 23 15
34 11 10 18 22 15 27 -3 6 1 15 9 22 8 7 15 23 15 36 0 13 4 24 9 24 9 0 18
19 22 45 1 6 9 15 17 21 8 6 12 16 9 21 -4 6 2 18 13 28 11 10 20 23 20 28 0
20 42 97 53 97 5 0 8 3 4 6 -3 3 3 23 14 42 10 20 19 43 19 50 0 7 6 15 13 18
7 2 13 20 14 39 0 19 8 41 17 50 9 9 16 25 16 35 0 10 5 20 10 22 6 2 12 13
13 25 0 13 7 25 14 27 8 3 13 22 13 46 0 29 4 40 15 40 13 0 17 13 15 45 -1 3
6 13 15 21 8 9 15 29 15 45 0 16 5 29 11 29 5 0 7 5 4 10 -3 6 -1 10 4 10 6 0
11 6 11 14 0 8 7 22 16 31 10 10 15 27 12 44 -3 20 1 32 14 40 10 6 17 14 17
19 -4 21 2 42 10 38 12 -8 19 13 15 47 -2 17 3 30 12 34 8 3 14 9 14 14 0 5 7
26 16 47 10 20 19 48 21 62 2 13 9 28 15 31 6 4 11 23 10 42 -1 23 4 37 13 41
9 3 15 19 15 40 0 19 7 41 15 50 8 8 15 28 15 44 0 16 6 35 14 41 8 7 14 26
14 43 -1 19 6 36 17 44 12 9 16 21 13 38 -3 15 1 32 11 43 9 10 18 33 19 51 1
19 9 41 17 49 9 9 13 24 9 39 -4 17 -1 26 10 30 10 4 16 18 16 38 0 18 7 41
15 52 8 10 15 30 15 44 0 14 7 34 15 44 8 11 15 39 15 62 0 23 6 47 13 53 8 6
14 31 14 56 1 28 7 53 17 64 9 10 16 29 16 44 0 14 6 32 13 39 7 7 14 35 14
62 2 32 7 53 17 58 10 6 14 21 12 44 -1 21 5 50 16 70 10 18 16 47 14 63 -2
18 3 37 13 48 10 12 16 35 15 68 0 28 6 61 15 75 8 13 15 47 15 75 1 27 7 60
14 72 6 12 12 46 12 77 0 35 5 60 15 70 10 9 15 34 15 70 0 33 5 60 14 68 8 9
13 36 13 73 -1 67 9 115 23 115 5 0 8 38 8 85 0 57 4 91 13 101 9 11 14 50 15
121 1 73 5 107 14 113 9 5 13 46 15 138 2 80 8 139 16 154 8 16 13 81 14 205
1 109 5 187 12 195 6 7 11 20 11 28 2 61 2 212 -1 245 -4 40 17 128 36 153 5
6 6 12 2 12 -4 0 -2 7 5 15 7 8 9 15 6 15 -4 0 -1 10 6 23 6 12 13 31 15 42 2
10 9 23 16 27 6 4 9 8 5 8 -4 0 0 16 8 35 7 19 17 51 20 72 3 21 9 40 13 43 8
6 33 84 38 120 2 14 6 32 10 40 7 18 5 11 31 130 34 158 44 316 28 420 -8 53
-56 161 -68 154 -4 -3 -8 2 -8 11 0 9 -4 14 -9 10 -5 -3 -13 4 -16 15 -4 12
-12 19 -18 17 -7 -2 -18 2 -25 10 -8 7 -18 11 -23 7 -6 -3 -16 0 -24 6 -8 6
-19 9 -25 5 -5 -3 -10 -1 -10 5 0 6 -7 10 -16 8 -14 -3 -17 15 -19 136 -2 102
-7 143 -17 150 -10 9 -13 49 -13 172 0 130 -3 166 -15 180 -12 15 -15 42 -14
119 1 70 -3 107 -12 122 -9 15 -14 53 -14 109 0 68 -4 92 -17 106 -11 12 -16
32 -15 55 2 21 -4 46 -15 62 -9 14 -16 31 -15 37 1 6 -5 17 -13 24 -8 7 -15
19 -15 27 0 20 -33 53 -60 58 -12 2 -29 10 -37 17 -18 15 -53 18 -53 5 0 -5
-6 -5 -13 2 -9 7 -17 7 -24 0 -6 -6 -18 -4 -34 9 -22 16 -48 18 -302 17 -242
-1 -279 -3 -293 -17 -13 -12 -23 -14 -41 -7 -18 6 -22 6 -17 -3 4 -7 3 -8 -5
-4 -18 11 -81 15 -81 4 0 -5 -9 -4 -20 2 -15 8 -20 8 -20 -2 0 -9 -3 -9 -12 0
-8 8 -17 8 -31 1 -14 -8 -18 -8 -13 0 5 8 0 8 -18 1 -16 -6 -26 -6 -26 0 0 6
-9 6 -23 1 -13 -5 -30 -5 -37 -1 -8 5 -19 5 -26 -1 -8 -6 -14 -7 -18 0 -4 6
-18 6 -36 1 -19 -5 -30 -5 -30 1 0 6 -7 6 -19 -1 -14 -7 -21 -6 -24 3 -4 9 -6
9 -6 -1 -1 -7 -6 -10 -12 -7 -5 4 -19 -1 -30 -11 -20 -18 -49 -28 -49 -16 0 4
-51 6 -112 5 -62 0 -113 -2 -113 -3 0 -1 -60 -3 -133 -4 -117 -2 -134 -5 -147
-22 -8 -10 -15 -14 -15 -8 0 6 -7 11 -15 11 -8 0 -15 -5 -15 -11 0 -6 -4 -5
-9 2 -11 17 -21 17 -32 0 -5 -7 -9 -8 -9 -3 0 9 -83 13 -115 5 -5 -1 -12 -1
-15 0 -18 7 -60 4 -60 -5 0 -6 -3 -7 -8 0 -4 6 -25 10 -47 10 -22 0 -43 -4
-47 -10 -5 -7 -8 -7 -8 0 0 6 -11 10 -25 10 -14 0 -25 -3 -25 -7 0 -4 -13 -3
-30 2 -21 6 -30 5 -30 -3 0 -7 -4 -6 -10 3 -8 13 -10 12 -10 -2 0 -22 15 -21
-265 -23 -191 -1 -236 -4 -265 -18 -19 -9 -48 -15 -65 -14 -16 2 -36 -1 -42
-6 -8 -5 -13 -6 -13 0 0 10 -106 11 -116 1 -3 -4 -16 -4 -28 0 -28 9 -58 8
-75 -3 -9 -5 -16 -5 -18 1 -4 11 -115 10 -132 0 -5 -4 -12 -2 -16 3 -7 12 -37
3 -47 -13 -4 -8 -90 -11 -270 -11 -230 0 -265 -2 -275 -16 -10 -13 -32 -16
-125 -15 -107 1 -113 2 -110 21 2 11 9 25 15 30 7 6 13 17 15 25 2 8 17 43 33
78 16 35 29 68 29 73 0 5 5 9 10 9 6 0 10 6 10 13 0 7 18 49 40 93 22 43 40
87 40 97 0 9 5 17 10 17 6 0 10 5 10 11 0 18 71 172 88 192 8 9 12 17 8 17 -3
0 4 21 18 48 13 26 34 76 47 112 13 36 29 70 35 77 7 7 18 35 25 62 7 28 16
48 21 45 4 -3 5 2 2 10 -3 9 -2 16 3 16 5 0 14 15 20 33 21 62 162 399 174
413 6 8 9 14 5 14 -3 0 1 17 10 37 8 21 27 70 41 108 14 39 30 76 35 83 6 6 8
12 4 12 -4 0 1 14 10 31 9 17 18 43 20 56 3 14 14 43 24 64 11 21 20 44 20 51
0 7 7 26 15 42 9 16 17 37 19 45 2 9 9 30 16 46 7 17 14 37 16 45 2 8 7 23 12
35 12 24 58 151 67 183 3 12 11 22 16 22 6 0 8 4 4 9 -5 9 14 78 35 126 10 24
81 236 84 250 1 6 7 20 14 31 6 12 9 24 6 27 -3 3 3 27 14 54 11 26 30 82 42
123 12 41 33 105 46 143 13 37 24 69 24 72 0 3 0 6 1 8 0 1 3 13 5 27 2 14 15
61 28 105 32 105 59 200 86 305 12 47 25 92 28 100 3 8 7 26 9 40 2 13 8 30
14 36 5 6 6 13 4 16 -5 5 -2 20 26 131 6 23 12 51 14 62 3 11 9 38 14 60 19
77 50 220 55 255 3 19 13 69 21 110 9 41 18 86 20 100 1 14 13 90 24 170 12
80 24 163 26 185 3 22 7 56 10 75 22 133 23 586 1 680 -3 14 -8 36 -11 50 -11
60 -25 108 -40 136 -8 16 -15 35 -15 42 0 6 -4 12 -10 12 -5 0 -10 7 -10 15 0
7 -8 19 -17 24 -10 6 -14 11 -10 11 24 1 -80 72 -112 77 -34 6 -99 6 -136 1
-35 -5 -95 -30 -95 -40 0 -4 -9 -5 -19 -3 -11 2 -25 -3 -32 -11 -6 -8 -16 -14
-22 -14 -5 0 -18 -10 -28 -22 -11 -11 -19 -18 -19 -14 0 9 -115 -78 -156 -119
-17 -16 -44 -41 -60 -56 -16 -14 -40 -39 -54 -56 -13 -17 -28 -29 -32 -27 -4
3 -8 1 -8 -5 0 -9 -56 -72 -135 -151 -14 -14 -25 -29 -25 -33 0 -4 -9 -18 -21
-30 -11 -12 -37 -43 -57 -69 -20 -27 -40 -48 -44 -48 -4 0 -8 -7 -8 -15 0 -8
-4 -15 -9 -15 -4 0 -24 -24 -44 -52 -92 -134 -121 -173 -129 -176 -4 -2 -8 -9
-8 -16 0 -6 -13 -26 -30 -44 -16 -18 -30 -37 -30 -42 0 -5 -6 -15 -12 -22 -23
-25 -58 -77 -58 -87 0 -5 -3 -11 -7 -13 -9 -3 -103 -145 -103 -153 0 -3 -22
-39 -50 -80 -27 -41 -50 -79 -50 -84 0 -6 -8 -14 -17 -20 -10 -5 -16 -13 -14
-16 2 -4 -11 -28 -28 -55 -17 -26 -31 -51 -31 -55 0 -3 -11 -21 -25 -39 -14
-18 -25 -40 -25 -49 0 -10 -4 -17 -9 -17 -5 0 -18 -20 -30 -45 -12 -25 -26
-45 -31 -45 -6 0 -10 -9 -10 -19 0 -11 -6 -26 -12 -33 -17 -18 -37 -49 -44
-68 -3 -8 -10 -22 -15 -30 -5 -8 -18 -33 -29 -55 -12 -22 -41 -76 -65 -120
-24 -44 -52 -96 -62 -115 -10 -19 -21 -37 -24 -40 -4 -3 -25 -44 -48 -92 -23
-49 -47 -88 -52 -88 -6 0 -7 -5 -3 -11 3 -6 3 -14 -2 -18 -8 -5 -17 -23 -55
-106 -7 -16 -21 -42 -31 -57 -10 -14 -18 -33 -18 -42 0 -9 -4 -16 -10 -16 -5
0 -10 -5 -10 -11 0 -15 -83 -183 -95 -191 -5 -4 -7 -8 -3 -8 3 0 -17 -46 -45
-102 -28 -57 -50 -109 -48 -115 1 -7 -3 -13 -8 -13 -5 0 -13 -10 -16 -22 -8
-25 -47 -88 -55 -88 -3 0 -5 51 -4 113 0 80 -4 117 -13 128 -10 12 -15 74 -17
251 -3 190 -7 240 -19 259 -12 18 -16 63 -19 187 -3 118 -7 165 -16 171 -9 6
-15 47 -18 135 -3 89 -9 136 -20 157 -10 20 -17 66 -19 136 -2 66 -8 110 -17
120 -7 9 -14 34 -15 57 -7 122 -10 145 -21 159 -7 8 -15 48 -17 87 -3 46 -10
79 -19 89 -10 11 -17 43 -19 95 -2 46 -9 81 -16 85 -6 4 -14 34 -17 67 -3 32
-13 70 -21 82 -8 14 -16 53 -18 93 -1 38 -8 75 -14 83 -7 8 -14 34 -17 58 -8
70 -9 75 -23 92 -7 8 -14 40 -16 71 -1 34 -9 63 -19 74 -10 11 -16 36 -16 69
0 36 -5 57 -17 70 -12 11 -19 37 -21 77 -2 39 -9 63 -19 71 -11 8 -16 26 -16
60 1 32 -6 61 -19 84 -12 21 -20 52 -20 78 1 26 -5 50 -15 62 -11 12 -17 40
-18 76 -1 36 -7 61 -16 68 -11 8 -13 22 -6 56 4 25 9 56 11 70 3 14 9 45 15
70 7 25 14 59 17 75 3 17 12 53 20 82 8 29 17 65 20 80 7 45 25 127 31 143 3
8 7 27 9 42 1 16 7 43 12 60 5 18 15 60 22 93 6 33 16 78 22 99 5 22 11 51 13
65 2 14 9 46 15 71 6 25 13 61 15 80 3 19 14 78 25 130 19 94 31 166 35 205 1
11 5 27 8 35 4 12 31 176 43 265 1 11 8 45 14 75 16 81 19 100 24 150 3 25 12
92 21 150 9 58 18 116 21 130 2 14 6 59 9 100 3 41 8 82 12 90 3 8 7 47 9 85
3 39 7 76 9 83 3 7 8 57 11 110 4 53 10 116 14 139 4 23 8 81 9 129 1 49 4 91
6 94 7 12 19 353 20 565 0 171 -5 331 -18 528 -1 9 -4 17 -7 17 -3 0 -6 15 -6
33 -7 144 -36 295 -74 382 -21 49 -33 78 -34 85 -1 3 -5 11 -9 18 -5 6 -6 12
-3 12 3 0 -2 9 -12 20 -9 12 -17 24 -17 28 0 4 -12 21 -27 37 -16 16 -28 33
-28 37 0 5 -7 8 -15 8 -8 0 -15 5 -15 10 0 6 -12 16 -27 23 -16 6 -31 16 -35
21 -6 9 -139 13 -168 4 -148 -42 -347 -240 -544 -539 -42 -64 -76 -121 -76
-127 0 -6 -4 -12 -8 -14 -8 -3 -75 -118 -156 -268 -79 -146 -226 -449 -293
-605 -19 -44 -36 -81 -38 -83 -9 -9 -35 28 -35 50 0 13 -9 29 -20 36 -11 7
-20 23 -20 36 0 12 -9 31 -19 40 -13 12 -18 26 -15 46 3 16 -1 34 -10 43 -8 8
-18 28 -22 43 -4 16 -15 37 -25 47 -12 11 -19 32 -19 56 0 22 -6 44 -15 51 -8
7 -15 20 -15 29 0 10 -9 27 -20 39 -11 12 -20 29 -20 38 0 10 -8 26 -17 37
-10 10 -18 29 -19 41 -3 57 -5 66 -17 66 -7 0 -14 11 -15 25 -1 13 -9 33 -19
44 -9 11 -18 30 -20 42 -2 12 -10 27 -17 33 -8 6 -16 22 -18 36 -2 14 -11 31
-20 38 -12 8 -18 27 -18 51 0 21 -7 45 -17 57 -10 10 -20 28 -21 39 -2 11 -10
27 -18 36 -7 8 -15 26 -17 39 -2 13 -9 26 -15 28 -7 2 -16 21 -22 43 -6 22
-15 37 -20 34 -6 -4 -10 8 -10 24 0 17 -5 31 -12 31 -6 0 -8 3 -5 7 4 3 -1 11
-9 18 -9 6 -17 22 -18 36 -1 13 -7 23 -12 22 -6 -1 -11 3 -12 10 0 7 -3 21 -6
32 -2 11 -5 23 -5 28 -1 4 -8 7 -16 7 -15 0 -19 11 -15 39 1 8 -6 21 -16 28
-9 7 -18 21 -19 31 0 10 -11 31 -22 46 -12 15 -20 33 -17 40 3 7 -4 21 -16 31
-11 10 -20 27 -20 38 0 11 -8 27 -17 36 -10 9 -20 25 -21 36 -2 11 -10 27 -18
36 -7 8 -15 24 -17 35 -1 11 -12 31 -24 43 -12 13 -19 29 -16 36 2 8 -5 22
-16 32 -12 9 -21 27 -21 39 0 13 -15 35 -35 53 -23 20 -35 39 -35 56 0 14 -4
25 -10 25 -5 0 -10 7 -10 16 0 8 -4 13 -9 10 -5 -4 -7 2 -4 13 3 11 -3 24 -14
32 -10 8 -20 25 -21 38 -2 14 -20 42 -40 63 -20 20 -36 47 -37 59 -1 12 -9 26
-18 31 -10 5 -17 20 -17 34 0 17 -12 37 -35 57 -19 17 -35 39 -35 48 0 10 -6
24 -13 31 -7 7 -19 29 -27 48 -8 19 -25 45 -39 57 -13 12 -26 32 -28 45 -2 13
-8 25 -13 26 -6 2 -10 11 -10 20 0 8 -3 12 -6 9 -9 -9 -48 42 -49 66 -1 10
-25 40 -53 66 -29 27 -52 57 -52 68 0 11 -18 37 -39 58 -21 21 -37 45 -34 52
3 8 -13 32 -35 54 -23 22 -39 46 -36 53 3 7 -22 41 -56 75 -33 34 -58 67 -54
72 3 5 1 15 -4 22 -6 7 -12 221 -16 522 -3 281 -10 569 -15 640 -6 72 -12 187
-15 256 -3 69 -7 132 -10 140 -3 8 -7 61 -10 119 -3 58 -8 119 -10 135 -3 17
-7 63 -10 103 -3 40 -7 76 -10 81 -3 4 -8 39 -11 77 -3 38 -7 83 -10 99 -3 17
-7 53 -9 80 -5 49 -10 82 -21 135 -5 23 -21 116 -31 180 -2 14 -10 56 -19 94
-8 38 -13 71 -10 74 3 3 1 10 -4 16 -5 6 -12 25 -14 41 -6 30 -11 54 -23 98
-3 12 -8 34 -11 50 -3 15 -9 30 -14 33 -5 3 -9 16 -9 30 0 14 -4 33 -9 43 -6
10 -11 28 -13 42 -2 13 -9 34 -16 46 -7 12 -12 30 -12 41 0 10 -3 22 -7 26 -5
4 -8 11 -9 14 -2 19 -112 252 -124 262 -3 3 -16 22 -30 42 -14 21 -28 38 -32
38 -5 0 -8 7 -8 15 0 8 -3 15 -7 15 -5 0 -24 15 -43 33 -19 17 -51 38 -70 45
-46 18 -143 23 -152 8 -6 -8 -8 -7 -8 2 0 8 -14 3 -40 -13 -22 -14 -40 -22
-40 -19 0 4 -11 -4 -24 -17 -13 -13 -30 -29 -38 -35 -7 -6 -33 -34 -58 -63
-25 -28 -55 -63 -68 -77 -12 -14 -29 -39 -38 -57 -9 -18 -22 -35 -28 -39 -6
-4 -7 -8 -2 -8 5 0 2 -8 -6 -17 -9 -10 -44 -74 -79 -143 -34 -69 -65 -127 -68
-130 -3 -3 -6 -11 -7 -17 -3 -38 -5 -44 -12 -39 -5 3 -9 0 -10 -7 -1 -15 -65
-180 -72 -187 -3 -3 -6 -13 -8 -22 -1 -10 -10 -34 -19 -55 -9 -21 -16 -44 -14
-50 1 -7 -2 -13 -7 -13 -5 0 -9 -6 -9 -12 -1 -23 -48 -173 -55 -176 -10 -5
-45 -126 -53 -186 -4 -27 -19 -86 -34 -132 -14 -45 -22 -80 -16 -76 6 3 6 0
-1 -9 -6 -8 -17 -40 -24 -72 -7 -32 -17 -60 -22 -63 -5 -3 -6 -9 -3 -14 3 -5
-2 -35 -11 -66 -9 -31 -17 -62 -18 -68 -6 -33 -19 -56 -32 -56 -8 0 -14 4 -14
10 0 5 -6 7 -14 4 -9 -4 -37 16 -71 50 -31 32 -64 56 -76 56 -23 0 -49 22 -49
41 0 7 -3 9 -6 6 -4 -4 -14 1 -23 11 -9 10 -27 17 -40 16 -14 -1 -25 5 -28 15
-5 20 -46 51 -75 56 -11 3 -36 20 -54 40 -18 20 -36 35 -41 33 -16 -4 -53 13
-53 25 0 13 -40 43 -52 39 -5 -1 -8 3 -8 9 0 5 -5 7 -12 3 -6 -4 -17 1 -24 10
-6 9 -23 18 -36 19 -13 1 -37 17 -53 34 -26 28 -47 38 -87 42 -5 1 -8 8 -8 16
0 9 -9 15 -25 15 -14 0 -34 9 -44 19 -11 11 -32 21 -48 23 -16 2 -27 8 -25 16
1 6 -1 12 -5 12 -5 0 -21 11 -37 25 -16 13 -33 22 -38 19 -5 -3 -19 3 -31 14
-12 11 -31 22 -42 24 -11 1 -28 11 -39 20 -10 9 -24 14 -32 11 -8 -3 -14 -1
-14 4 0 8 -50 37 -58 34 -1 -1 -22 10 -47 24 -25 13 -45 22 -45 18 0 -3 -8 3
-17 14 -10 11 -24 18 -31 15 -7 -2 -23 5 -35 16 -25 22 -67 35 -67 20 0 -7 -5
-6 -13 1 -8 6 -17 8 -20 4 -4 -3 -7 1 -7 11 0 9 -4 14 -10 11 -5 -3 -10 -2
-10 2 0 5 -10 9 -21 10 -12 1 -29 9 -38 17 -10 9 -24 16 -32 16 -9 0 -25 9
-37 20 -12 12 -22 18 -22 16 0 -3 -11 -1 -24 4 -17 6 -26 5 -28 -2 -2 -6 -16
1 -32 15 -15 14 -33 24 -40 21 -6 -2 -22 5 -35 17 -14 13 -35 21 -57 21 -18 0
-44 8 -56 17 -13 10 -35 21 -50 25 -16 3 -28 11 -28 17 0 6 -4 7 -10 4 -5 -3
-10 -2 -10 3 0 11 -32 11 -40 0 -3 -4 -19 6 -36 21 -23 22 -35 26 -47 19 -12
-6 -17 -5 -17 3 0 8 -4 8 -13 1 -9 -8 -18 -4 -35 13 -16 17 -30 22 -49 19 -17
-3 -37 2 -54 15 -16 12 -43 21 -60 21 -18 0 -41 8 -51 17 -10 9 -36 17 -57 18
-22 1 -46 9 -56 18 -9 9 -22 17 -28 18 -7 0 -33 1 -59 2 -30 1 -52 8 -60 18
-16 20 -48 32 -48 17 0 -7 -4 -7 -13 1 -8 6 -17 7 -21 3 -4 -4 -14 2 -21 12
-11 14 -29 19 -76 21 -46 2 -66 7 -75 20 -10 13 -29 18 -73 19 -40 1 -63 6
-66 14 -3 7 -9 10 -15 7 -5 -3 -10 -2 -10 3 0 5 -18 8 -40 7 -37 -2 -100 20
-100 34 0 8 -76 5 -89 -4 -5 -3 -12 -1 -16 4 -3 5 -14 8 -25 6 -11 -2 -24 4
-29 13 -7 12 -23 17 -54 18 -24 0 -48 4 -53 7 -6 3 -16 2 -23 -2 -12 -8 -71
16 -71 29 0 3 -29 5 -65 4 -36 0 -65 3 -65 8 0 5 -4 7 -9 3 -5 -3 -12 -1 -16
5 -4 6 -11 8 -16 5 -5 -4 -9 -2 -9 3 0 6 -10 10 -22 10 -13 1 -61 2 -108 3
-61 1 -90 6 -103 17 -13 11 -40 16 -102 15 -47 0 -85 3 -85 7 0 3 -16 4 -35 2
-20 -2 -50 3 -71 13 -19 9 -42 14 -49 11 -8 -3 -17 -1 -20 4 -4 7 -13 6 -26 0
-10 -6 -19 -7 -19 -3 0 4 -56 8 -125 7 -69 0 -125 2 -125 5 0 4 -17 24 -37 47
-21 22 -50 56 -65 75 -14 19 -36 45 -48 59 -12 14 -30 35 -41 48 -10 12 -19
27 -19 33 0 5 -4 7 -10 4 -5 -3 -10 -2 -10 4 0 5 -10 21 -22 35 -41 44 -58 66
-58 74 0 4 -9 13 -20 20 -11 7 -20 19 -20 27 0 8 -3 15 -8 15 -4 0 -25 23 -47
50 -22 28 -46 50 -53 50 -7 0 -11 4 -8 9 3 5 -19 35 -49 67 -30 31 -55 60 -55
64 0 3 -10 15 -22 27 -41 35 -96 102 -90 108 3 3 -2 5 -11 5 -10 0 -17 5 -17
11 0 6 -18 27 -40 48 -22 20 -40 40 -40 44 0 5 -18 25 -40 47 -22 22 -40 44
-40 50 0 6 -4 9 -8 6 -4 -2 -18 8 -30 23 -38 48 -167 176 -174 173 -5 -1 -8 4
-8 11 0 8 -22 35 -50 61 -27 26 -50 52 -50 57 0 5 -5 9 -10 9 -6 0 -43 33 -84
74 -41 41 -77 71 -80 68 -3 -3 -6 1 -6 9 0 8 -14 25 -31 39 -16 14 -55 50 -86
80 -31 30 -60 54 -65 53 -4 -2 -8 1 -8 6 0 11 -12 23 -69 70 -22 19 -41 41
-41 48 0 7 -3 12 -7 12 -20 -3 -34 2 -28 11 3 6 -3 10 -15 10 -12 0 -18 5 -15
10 3 6 2 10 -3 10 -4 0 -23 13 -42 30 -18 16 -36 28 -40 25 -3 -2 -14 9 -24
26 -9 16 -22 27 -27 24 -5 -4 -9 -1 -9 4 0 6 -7 11 -15 11 -8 0 -15 7 -15 15
0 8 -11 17 -25 21 -14 3 -22 10 -19 15 3 5 0 9 -7 9 -7 0 -19 7 -28 15 -52 47
-61 54 -61 48 0 -4 -13 5 -28 20 -16 15 -31 25 -34 22 -3 -4 -15 6 -27 21 -11
15 -21 24 -21 20 0 -4 -10 2 -22 14 -12 11 -28 20 -35 20 -7 0 -13 5 -13 10 0
6 -7 10 -15 10 -8 0 -15 5 -15 10 0 6 -6 10 -13 10 -7 0 -25 11 -40 26 -15 14
-32 22 -37 19 -6 -3 -10 -1 -10 4 0 6 -5 11 -11 11 -6 0 -17 7 -26 15 -8 8
-19 13 -24 10 -5 -4 -9 -1 -9 4 0 6 -7 11 -15 11 -8 0 -15 5 -15 10 0 6 -7 10
-15 10 -8 0 -35 11 -60 25 -25 14 -45 23 -45 20 0 -3 -11 2 -25 11 -14 9 -25
13 -25 9 0 -4 -6 -3 -12 2 -16 13 -98 39 -118 38 -8 0 -18 3 -21 8 -8 12 -178
16 -185 5 -3 -4 -10 -8 -15 -8 -6 0 -7 5 -4 10 3 6 4 10 0 10 -3 0 -8 -6 -11
-14z m4424 -6132 c-4 -3 -12 5 -18 18 -12 22 -12 22 6 6 10 -10 15 -20 12 -24z
m6139 -9126 c-3 -8 -6 -5 -6 6 -1 11 2 17 5 13 3 -3 4 -12 1 -19z m633 -2613
c36 0 71 4 78 8 6 5 12 5 12 0 0 -6 55 -7 165 -3 6 1 61 -1 123 -2 61 -2 112
1 112 5 0 4 7 4 17 -1 9 -6 29 -6 45 -2 15 5 28 6 28 2 0 -4 17 -6 37 -5 21 1
38 2 38 3 0 2 91 3 203 4 221 2 216 4 188 -57 -8 -18 -36 -95 -61 -172 -26
-77 -51 -145 -56 -151 -5 -6 -6 -14 -3 -17 3 -3 2 -12 -2 -19 -5 -7 -10 -23
-12 -35 -1 -12 -9 -34 -17 -50 -8 -15 -15 -34 -15 -41 0 -7 -4 -20 -9 -30 -17
-32 -50 -145 -45 -154 3 -4 1 -8 -3 -8 -5 0 -15 -21 -22 -47 -8 -27 -25 -84
-39 -128 -14 -44 -27 -91 -29 -104 -9 -54 -18 -58 -153 -57 -69 1 -132 -2
-141 -6 -9 -4 -31 -3 -48 2 -19 5 -31 5 -31 -1 0 -5 -7 -9 -15 -9 -9 0 -12 -6
-8 -17 5 -12 3 -14 -7 -8 -19 12 -100 13 -100 2 0 -4 -6 -5 -12 -1 -18 11 -48
12 -48 2 0 -5 -6 -6 -12 -1 -18 11 -61 11 -75 0 -8 -6 -13 -6 -13 1 0 11 -18
11 -37 -1 -7 -5 -13 -4 -13 0 0 5 -9 9 -20 9 -11 0 -20 -4 -20 -7 0 -4 -13 -4
-30 1 -21 6 -30 5 -30 -3 0 -8 -3 -8 -12 1 -8 8 -15 9 -25 1 -7 -7 -13 -7 -13
-2 0 13 -61 7 -70 -7 -10 -16 -107 -21 -119 -6 -5 6 -14 29 -21 51 -7 22 -16
49 -20 60 -9 24 -35 108 -35 115 -1 3 -7 16 -15 30 -7 14 -13 26 -12 27 2 3 0
8 -37 119 -17 50 -32 100 -34 110 -2 11 -11 35 -19 54 -21 47 -38 97 -49 143
-5 21 -14 45 -19 55 -5 9 -21 51 -34 92 -14 41 -31 91 -39 110 -9 20 -18 54
-21 76 l-6 40 127 1 c71 1 130 2 133 3 3 1 55 1 115 0 83 -1 118 3 142 15 18
9 42 14 52 10 11 -3 23 -1 26 6 4 6 10 7 14 3 3 -5 35 -9 71 -9z m-892 -38 c7
-5 12 -4 12 2 0 6 3 11 8 11 13 0 93 -190 97 -230 1 -8 7 -25 14 -38 10 -19
23 -56 46 -132 3 -10 17 -46 27 -70 6 -14 14 -38 19 -55 4 -16 21 -70 38 -118
19 -53 28 -93 24 -102 -9 -15 -20 -8 -95 59 -14 13 -36 27 -47 31 -12 3 -21
11 -21 17 0 5 -7 7 -16 4 -8 -3 -12 -2 -9 4 3 6 2 10 -4 10 -5 0 -23 11 -39
25 -16 13 -32 22 -36 18 -3 -3 -6 -1 -6 5 0 7 -5 12 -11 12 -7 0 -20 9 -30 21
-10 11 -22 18 -27 15 -5 -3 -17 3 -27 14 -10 11 -22 17 -26 14 -5 -3 -9 0 -9
5 0 6 -8 11 -19 11 -10 0 -24 7 -31 15 -7 8 -16 13 -20 10 -4 -3 -11 2 -14 11
-3 8 -10 13 -15 10 -5 -4 -11 -2 -13 3 -1 5 -10 11 -18 13 -8 2 -18 7 -21 11
-3 4 -16 9 -27 10 -12 1 -22 4 -22 8 0 8 -44 24 -47 18 -2 -2 -10 6 -18 18 -9
13 -23 20 -34 18 -11 -2 -22 3 -25 11 -3 9 -10 12 -16 9 -5 -3 -10 -1 -10 5 0
7 -7 10 -15 6 -8 -3 -15 -1 -15 4 0 6 -9 10 -20 10 -11 0 -20 5 -20 11 0 5 -4
7 -10 4 -5 -3 -10 -1 -10 4 0 6 -7 11 -15 11 -20 0 -85 32 -85 42 0 5 -6 8
-12 7 -13 -2 -37 5 -73 22 -12 6 -28 11 -37 13 -9 1 -23 7 -31 14 -8 7 -19 12
-23 11 -9 -3 -62 20 -116 48 -16 8 -28 12 -28 9 0 -3 -20 5 -44 19 -24 13 -46
21 -50 18 -3 -4 -6 -1 -6 5 0 14 190 21 191 7 0 -7 2 -7 5 0 2 6 64 9 159 9
127 -1 161 1 188 15 28 14 68 17 277 16 135 0 251 -4 258 -8z m-1148 -833 c0
-8 -19 -13 -24 -6 -3 5 1 9 9 9 8 0 15 -2 15 -3z m244 -882 c2 -4 -5 -9 -17
-9 -17 -2 -19 0 -7 7 18 12 18 12 24 2z m-4674 -1024 c0 -4 -7 -8 -15 -8 -8 0
-15 4 -15 8 0 5 7 9 15 9 8 0 15 -4 15 -9z m12960 -772 c0 -3 -4 -8 -10 -11
-5 -3 -10 -1 -10 4 0 6 5 11 10 11 6 0 10 -2 10 -4z"/>
</g>
</svg>
